<svg width="21" height="21" viewBox="0 0 21 21" fill="none" xmlns="http://www.w3.org/2000/svg">
<path d="M18.1517 8.78634C17.4905 9.1563 16.7283 9.36719 15.9168 9.36719C13.3855 9.36719 11.3335 7.31516 11.3335 4.78385C11.3335 4.6434 11.3398 4.50442 11.3522 4.36719H4.32522L4.04642 3.15909C3.87191 2.40287 3.19853 1.86719 2.42244 1.86719H1.75016C1.52004 1.86719 1.3335 2.05374 1.3335 2.28385C1.3335 2.51397 1.52004 2.70052 1.75016 2.70052H2.42244C2.81049 2.70052 3.14718 2.96836 3.23443 3.34647L5.2127 11.919C5.43084 12.8643 6.27257 13.5339 7.24268 13.5339H15.4168C16.3912 13.5339 17.2355 12.8585 17.4493 11.9078L18.1517 8.78634Z" fill="#025CA6"/>
<path d="M8.00016 14.3672C7.07969 14.3672 6.3335 15.1134 6.3335 16.0339C6.3335 16.9543 7.07969 17.7005 8.00016 17.7005C8.92064 17.7005 9.66683 16.9543 9.66683 16.0339C9.66683 15.1134 8.92064 14.3672 8.00016 14.3672Z" fill="#025CA6"/>
<path d="M14.6668 14.3672C13.7464 14.3672 13.0002 15.1134 13.0002 16.0339C13.0002 16.9543 13.7464 17.7005 14.6668 17.7005C15.5873 17.7005 16.3335 16.9543 16.3335 16.0339C16.3335 15.1134 15.5873 14.3672 14.6668 14.3672Z" fill="#025CA6"/>
<path fill-rule="evenodd" clip-rule="evenodd" d="M15.9168 1.86719C16.1469 1.86719 16.3335 2.05374 16.3335 2.28385V4.36719H18.4168C18.6469 4.36719 18.8335 4.55374 18.8335 4.78385C18.8335 5.01397 18.6469 5.20052 18.4168 5.20052H16.3335V7.28385C16.3335 7.51397 16.1469 7.70052 15.9168 7.70052C15.6867 7.70052 15.5002 7.51397 15.5002 7.28385V5.20052H13.4168C13.1867 5.20052 13.0002 5.01397 13.0002 4.78385C13.0002 4.55374 13.1867 4.36719 13.4168 4.36719H15.5002V2.28385C15.5002 2.05374 15.6867 1.86719 15.9168 1.86719Z" fill="#025CA6"/>
</svg>
