<svg width="24" height="25" viewBox="0 0 24 25" fill="none" xmlns="http://www.w3.org/2000/svg">
<path d="M11.9993 5.10211C11.9993 3.56572 10.1611 2.77505 9.04577 3.83169L1.38629 11.088C0.657697 11.7783 0.657693 12.9386 1.38629 13.6289L9.04577 20.8852C10.1611 21.9419 11.9993 21.1512 11.9993 19.6148V16.8661C15.4173 16.9201 17.3248 17.2589 18.5115 17.7989C19.708 18.3434 20.2451 19.1232 20.918 20.4357C21.4759 21.5242 23.0084 21.019 22.9971 19.9206C22.9545 15.7894 22.2976 12.674 20.3178 10.6334C18.4876 8.74702 15.7291 7.98335 11.9993 7.87279V5.10211Z" fill="url(#paint0_linear_3258_95738)"/>
<defs>
<linearGradient id="paint0_linear_3258_95738" x1="11.9185" y1="3.34863" x2="11.9185" y2="21.3683" gradientUnits="userSpaceOnUse">
<stop stop-color="#0169FF"/>
<stop offset="1" stop-color="#004795"/>
</linearGradient>
</defs>
</svg>
