<svg width="20" height="20" viewBox="0 0 20 20" fill="none" xmlns="http://www.w3.org/2000/svg">
<path d="M13.9167 15.5664H6.08337V15.9247H13.9167V15.5664Z" fill="#025CA6"/>
<path d="M1.66669 3.31641V13.7414H8.55002L8.02502 15.3247H11.975L11.45 13.7414H17.4917V13.0747H2.32502V3.97474H17.675V13.0747H17.1V13.7414H18.3334V3.31641H1.66669Z" fill="#025CA6"/>
<path d="M12.9167 7.80792L10.425 8.38292V7.74125C10.425 7.69125 10.425 7.64125 10.4167 7.58292C10.3583 7.31625 10.0833 7.14959 9.81668 7.20792L6.83335 7.89959C6.56668 7.95792 6.40001 8.23292 6.45835 8.49959C6.51668 8.76625 6.79168 8.93292 7.05835 8.87459L9.36668 8.34125V9.09125C9.36668 9.09125 9.36668 9.14125 9.37501 9.16625C9.44168 9.44959 9.72501 9.62459 10 9.55792L13.1417 8.83292C13.425 8.76625 13.6 8.48292 13.5333 8.20792C13.4667 7.92459 13.1833 7.74959 12.9083 7.81625L12.9167 7.80792Z" fill="#025CA6"/>
</svg>
