<svg width="20" height="20" viewBox="0 0 20 20" fill="none" xmlns="http://www.w3.org/2000/svg">
<path d="M16.7167 7.36634V6.50801C16.7167 6.06634 16.3584 5.70801 15.9167 5.70801H4.09169C3.65002 5.70801 3.29169 6.06634 3.29169 6.50801V7.36634H16.7167Z" fill="#025CA6"/>
<path d="M3.28333 16.0996V16.6496C3.28333 17.0913 3.64166 17.4496 4.08333 17.4496H15.9C16.3417 17.4496 16.7 17.0913 16.7 16.6496V16.0996H3.28333Z" fill="#025CA6"/>
<path d="M9.99999 2.54199C7.14999 2.54199 4.80833 3.92533 4.53333 5.70033H7.26666C7.40833 4.81699 8.57499 4.11699 9.99999 4.11699C11.425 4.11699 12.5917 4.80866 12.7333 5.70033H15.4667C15.1917 3.92533 12.85 2.54199 9.99999 2.54199Z" fill="#025CA6"/>
<path d="M16.5667 8.47461H17.0583C17.2583 8.47461 17.45 8.53294 17.625 8.63294L18.3333 9.05794V9.63294H16.5667V8.47461Z" fill="#025CA6"/>
<path d="M3.43335 8.47461H2.94169C2.74169 8.47461 2.55002 8.53294 2.37502 8.63294L1.66669 9.05794V9.63294H3.43335V8.47461Z" fill="#025CA6"/>
<path d="M9.59999 5.31641H8.90833V5.88307H9.59999V5.31641Z" fill="#025CA6"/>
<path d="M8.87496 4.97461H9.63329C9.63329 4.97461 9.69996 5.00794 9.69996 5.04128V5.34128C9.69996 5.34128 9.66662 5.40794 9.63329 5.40794H8.80829V5.04128C8.80829 5.04128 8.84162 4.97461 8.87496 4.97461Z" fill="#025CA6"/>
<path d="M8.94165 5.22461H8.29998C8.24998 5.22461 8.20831 5.26628 8.20831 5.31628C8.20831 5.36628 8.24998 5.40794 8.29998 5.40794H8.94165V5.22461Z" fill="#025CA6"/>
<path d="M3.28333 7.83301V15.6413H16.7083V7.83301H3.28333ZM11.6083 13.8747C11.6083 13.9913 11.5167 14.0913 11.3917 14.0913H8.59999C8.48333 14.0913 8.38333 13.9997 8.38333 13.8747V9.84967C8.38333 9.73301 8.47499 9.63301 8.59999 9.63301H11.3917C11.5083 9.63301 11.6083 9.72467 11.6083 9.84967V13.8747Z" fill="#025CA6"/>
<path d="M10 13.7753C10.4787 13.7753 10.8667 13.3873 10.8667 12.9087C10.8667 12.43 10.4787 12.042 10 12.042C9.52138 12.042 9.13336 12.43 9.13336 12.9087C9.13336 13.3873 9.52138 13.7753 10 13.7753Z" fill="#025CA6"/>
<path d="M11.3417 9.95801H8.66669V10.9163H11.3417V9.95801Z" fill="#025CA6"/>
<path d="M9.76669 11.25H8.66669V11.775H9.76669V11.25Z" fill="#025CA6"/>
<path d="M11.3333 11.25H10.2333V11.775H11.3333V11.25Z" fill="#025CA6"/>
</svg>
