<svg width="20" height="20" viewBox="0 0 20 20" fill="none" xmlns="http://www.w3.org/2000/svg">
<path d="M15.875 12.8418H7.97502C7.7449 12.8418 7.55835 13.0283 7.55835 13.2585V15.2751C7.55835 15.5052 7.7449 15.6918 7.97502 15.6918H15.875C16.1051 15.6918 16.2917 15.5052 16.2917 15.2751V13.2585C16.2917 13.0283 16.1051 12.8418 15.875 12.8418Z" fill="#025CA6"/>
<path d="M6.04172 7.59961H17.8001V13.1746C17.8001 14.0996 17.0501 14.8579 16.1167 14.8579H7.71672C6.79172 14.8579 6.03339 14.1079 6.03339 13.1746V7.59961H6.04172Z" fill="#025CA6"/>
<path d="M15.15 7.59961V13.1746C15.15 14.0996 14.4 14.8579 13.4667 14.8579H15.0833C16.0083 14.8579 16.7667 14.1079 16.7667 13.1746V7.59961H15.15Z" fill="white"/>
<path d="M8.31669 4.77441H15.5334C16.7917 4.77441 17.8084 5.79108 17.8084 7.04941H6.04169C6.04169 5.79108 7.05835 4.77441 8.31669 4.77441Z" fill="#025CA6"/>
<path d="M12.4334 4.90814H11.4084V4.30814C11.4084 4.0248 11.6334 3.7998 11.9167 3.7998C12.2001 3.7998 12.4251 4.0248 12.4251 4.30814V4.90814H12.4334Z" fill="#025CA6"/>
<path d="M14.8667 6.93359H16.675C16.4417 5.92526 15.5417 5.18359 14.4667 5.18359H9.32501V5.71693H12.8667C13.7417 5.71693 14.5 6.20859 14.875 6.93359H14.8667Z" fill="white"/>
<path d="M17.95 7.31647H5.8917C5.68336 7.31647 5.50836 7.14147 5.50836 6.93314C5.50836 6.7248 5.68336 6.5498 5.8917 6.5498H17.95C18.1584 6.5498 18.3334 6.7248 18.3334 6.93314C18.3334 7.14147 18.1584 7.31647 17.95 7.31647Z" fill="#025CA6"/>
<path d="M3.8 6.625H3.375V14.325H3.8V6.625Z" fill="#025CA6"/>
<path d="M3.59167 3.61621C3.94167 3.61621 4.225 3.90788 4.20834 4.26621L4.01667 8.69121C4.00834 8.91621 3.81667 9.09954 3.59167 9.09954C3.36667 9.09954 3.175 8.92454 3.16667 8.69121L2.975 4.26621C2.95834 3.91621 3.24167 3.61621 3.59167 3.61621Z" fill="#025CA6"/>
<path d="M5.50833 14.3242C5.50833 15.3826 4.64999 15.8659 3.58333 15.8659C2.51666 15.8659 1.65833 15.3826 1.65833 14.3242" fill="#025CA6"/>
</svg>
