<svg width="41" height="40" viewBox="0 0 41 40" fill="none" xmlns="http://www.w3.org/2000/svg">
<path d="M20.3373 40C31.383 40 40.3373 31.0457 40.3373 20C40.3373 8.9543 31.383 0 20.3373 0C9.29158 0 0.33728 8.9543 0.33728 20C0.33728 31.0457 9.29158 40 20.3373 40Z" fill="url(#paint0_linear_3258_95867)"/>
<path d="M22.5515 32.7403V21.5946H26.2695L26.9745 16.987H22.5515V13.9908C22.5515 12.7319 23.1726 11.4981 25.1533 11.4981H27.1675V7.5703C27.1675 7.5703 25.3379 7.25977 23.6006 7.25977C19.9581 7.25977 17.5746 9.46707 17.5746 13.462V16.9786H13.5209V21.5862H17.5746V32.7319H22.5599L22.5515 32.7403Z" fill="white"/>
<defs>
<linearGradient id="paint0_linear_3258_95867" x1="6.19544" y1="5.85816" x2="34.4791" y2="34.1418" gradientUnits="userSpaceOnUse">
<stop stop-color="#1677F1"/>
<stop offset="0.18" stop-color="#176EE9"/>
<stop offset="0.46" stop-color="#1D55D3"/>
<stop offset="0.82" stop-color="#252EB0"/>
<stop offset="1" stop-color="#2B189C"/>
</linearGradient>
</defs>
</svg>
