<svg width="32" height="33" viewBox="0 0 32 33" fill="none" xmlns="http://www.w3.org/2000/svg">
<path d="M8.31422 15.1331C7.04755 16.2531 6.39271 18.4361 6.30189 20.3059C6.12025 24.0978 7.85535 30.832 15.7326 30.832C23.6098 30.832 25.7225 25.1609 25.9281 21.8815C26.1336 18.6022 26.1575 13.6998 24.4415 10.7337C24.8478 12.727 24.2312 14.4449 23.2752 15.7263C22.7399 15.2897 22.2906 14.9527 21.8174 13.5575C21.3442 12.1622 20.8709 9.90322 21.3585 8.58865C18.0556 10.672 17.4868 6.38661 19.2267 2.96967C17.3291 4.25577 15.4171 5.55611 13.9114 7.26933C12.4058 8.98255 11.3303 11.1703 11.3877 13.529C11.402 14.1697 11.5024 14.8151 11.4355 15.4463C11.3686 16.0775 11.0961 16.7086 10.5464 17.0029C10.0302 17.2781 9.31799 17.188 8.84 16.7893C8.35724 16.3859 8.14214 15.7025 8.319 15.1425L8.31422 15.1331Z" fill="#FFF8DC"/>
<path d="M7.35815 15.1331C6.09148 16.2531 5.43664 18.4361 5.34582 20.3059C5.16418 24.0978 6.89928 30.832 14.7765 30.832C22.6537 30.832 24.7665 25.1609 24.972 21.8815C25.1775 18.6022 25.2014 13.6998 23.4854 10.7337C23.8917 12.727 23.2751 14.4449 22.3192 15.7263C21.7838 15.2897 21.3345 14.9527 20.8613 13.5575C20.3881 12.1622 19.9149 9.90322 20.4024 8.58865C17.0995 10.672 16.5307 6.38661 18.2706 2.96967C16.373 4.25577 14.461 5.55611 12.9554 7.26933C11.4497 8.98255 10.3742 11.1703 10.4316 13.529C10.4459 14.1697 10.5463 14.8151 10.4794 15.4463C10.4125 16.0775 10.14 16.7086 9.59035 17.0029C9.07412 17.2781 8.36192 17.188 7.88393 16.7893C7.40117 16.3859 7.18607 15.7025 7.36293 15.1425L7.35815 15.1331Z" fill="url(#paint0_linear_11727_10615)"/>
<path d="M17.2524 12.4612C16.1865 13.3059 15.1397 14.1744 14.2841 15.2374C13.897 15.7215 13.548 16.253 13.2708 16.8178C12.9362 17.4964 12.702 18.2178 12.6207 18.9486C12.5777 19.314 12.5729 19.6795 12.4821 20.0307C12.3913 20.3771 12.2001 20.7188 11.8655 20.8849C11.5501 21.0415 11.1438 20.9893 10.8331 20.7995C10.4555 20.5764 10.1926 20.1635 10.183 19.7601C7.10477 26.6368 11.4306 30.832 15.5078 30.832C19.8575 30.832 21.6021 27.8185 22.0467 25.8964C22.4721 24.0598 22.0228 22.114 21.2771 20.3012C21.2628 21.1364 21.215 21.9005 20.7322 22.3418C20.6557 20.9324 16.3825 15.9208 17.2572 12.4564L17.2524 12.4612Z" fill="url(#paint1_linear_11727_10615)"/>
<path d="M19.9675 27.2964C19.958 25.9202 19.4274 25.0944 18.7391 23.9649C18.0508 22.8354 17.4103 21.4212 17.85 20.1398C16.9801 20.4958 16.2201 21.1792 15.7087 22.0524C15.3693 22.6361 15.1351 23.3053 14.7766 23.8747C14.4133 24.4442 13.8684 24.9331 13.2518 24.9141C12.6352 24.8951 12.0473 24.1595 12.2671 23.5046C11.5024 24.8951 11.3829 26.7175 11.9517 28.2219C12.5205 29.7263 14.2651 31.0076 15.7039 30.9364C18.0747 30.8225 19.9866 29.5032 19.9723 27.2964H19.9675Z" fill="url(#paint2_linear_11727_10615)"/>
<defs>
<linearGradient id="paint0_linear_11727_10615" x1="3.80192" y1="16.8985" x2="23.8344" y2="16.8985" gradientUnits="userSpaceOnUse">
<stop stop-color="#AB0001"/>
<stop offset="1" stop-color="#FD4500"/>
</linearGradient>
<linearGradient id="paint1_linear_11727_10615" x1="15.6703" y1="13.7378" x2="15.6703" y2="27.0022" gradientUnits="userSpaceOnUse">
<stop stop-color="#FD4500"/>
<stop offset="1" stop-color="#FCD203"/>
</linearGradient>
<linearGradient id="paint2_linear_11727_10615" x1="15.7804" y1="30.5758" x2="15.7804" y2="22.2517" gradientUnits="userSpaceOnUse">
<stop stop-color="white"/>
<stop offset="1" stop-color="#FCD203"/>
</linearGradient>
</defs>
</svg>
