<svg width="75" height="29" viewBox="0 0 75 29" fill="none" xmlns="http://www.w3.org/2000/svg">
<rect width="75" height="29" fill="#1E1E1E"/>
<path d="M-2312 -17178C-2312 -17179.1 -2311.1 -17180 -2310 -17180H17878C17879.1 -17180 17880 -17179.1 17880 -17178V2657C17880 2658.11 17879.1 2659 17878 2659H-2310C-2311.1 2659 -2312 2658.11 -2312 2657V-17178Z" fill="black"/>
<path d="M-2310 -17180V-17179H17878V-17180V-17181H-2310V-17180ZM17880 -17178H17879V2657H17880H17881V-17178H17880ZM17878 2659V2658H-2310V2659V2660H17878V2659ZM-2312 2657H-2311V-17178H-2312H-2313V2657H-2312ZM-2310 2659V2658C-2310.55 2658 -2311 2657.55 -2311 2657H-2312H-2313C-2313 2658.66 -2311.66 2660 -2310 2660V2659ZM17880 2657H17879C17879 2657.55 17878.6 2658 17878 2658V2659V2660C17879.7 2660 17881 2658.66 17881 2657H17880ZM17878 -17180V-17179C17878.6 -17179 17879 -17178.6 17879 -17178H17880H17881C17881 -17179.7 17879.7 -17181 17878 -17181V-17180ZM-2310 -17180V-17181C-2311.66 -17181 -2313 -17179.7 -2313 -17178H-2312H-2311C-2311 -17178.6 -2310.55 -17179 -2310 -17179V-17180Z" fill="white" fill-opacity="0.1"/>
<path d="M-1210 -6368C-1210 -6369.1 -1209.1 -6370 -1208 -6370H16793C16794.1 -6370 16795 -6369.1 16795 -6368V1916C16795 1917.1 16794.1 1918 16793 1918H-1208C-1209.1 1918 -1210 1917.1 -1210 1916V-6368Z" fill="#444444"/>
<path d="M-1208 -6370V-6369H16793V-6370V-6371H-1208V-6370ZM16795 -6368H16794V1916H16795H16796V-6368H16795ZM16793 1918V1917H-1208V1918V1919H16793V1918ZM-1210 1916H-1209V-6368H-1210H-1211V1916H-1210ZM-1208 1918V1917C-1208.55 1917 -1209 1916.55 -1209 1916H-1210H-1211C-1211 1917.66 -1209.66 1919 -1208 1919V1918ZM16795 1916H16794C16794 1916.55 16793.6 1917 16793 1917V1918V1919C16794.7 1919 16796 1917.66 16796 1916H16795ZM16793 -6370V-6369C16793.6 -6369 16794 -6368.55 16794 -6368H16795H16796C16796 -6369.66 16794.7 -6371 16793 -6371V-6370ZM-1208 -6370V-6371C-1209.66 -6371 -1211 -6369.66 -1211 -6368H-1210H-1209C-1209 -6368.55 -1208.55 -6369 -1208 -6369V-6370Z" fill="white" fill-opacity="0.1"/>
<g filter="url(#filter0_d_989_52072)">
<rect x="-637" y="-5669" width="1920" height="5863" rx="8" fill="#F5F5F5"/>
<rect x="-636.5" y="-5668.5" width="1919" height="5862" rx="7.5" stroke="white" stroke-opacity="0.1"/>
<rect width="1920" height="580" transform="translate(-637 -436)" fill="white"/>
<rect x="-13.5903" y="-5.41502" width="102.163" height="38.83" fill="white" stroke="#E2E2E2" stroke-width="1.16996"/>
<g clip-path="url(#clip0_989_52072)">
<path d="M21.7418 22.4935L17.1191 25.0648C13.4938 26.3488 13.1318 23.7168 13.1318 23.7168C12.9391 22.7708 13.2131 22.3515 12.4831 21.8688C12.071 21.6279 11.7647 21.2406 11.6251 20.7841C11.9191 20.7235 13.4191 20.5841 14.3451 20.5001C13.4442 20.4735 12.5486 20.3535 11.6724 20.1421C10.1958 19.9968 10.9898 19.0235 10.9898 19.0235C11.0493 18.8184 11.0656 18.6032 11.0377 18.3915C11.0098 18.1798 10.9383 17.9762 10.8278 17.7935C9.74643 17.3815 8.86111 17.0261 8.86111 17.0261C7.85111 16.5095 8.50644 15.2961 8.50644 15.2961L9.97976 11.9275C10.172 11.4397 10.2485 10.914 10.2034 10.3916C10.1583 9.86924 9.99276 9.36444 9.71978 8.9168C8.54778 7.62614 8.87177 6.5688 8.87177 6.5688L9.4631 3.60547C6.51351 4.45801 3.98446 6.37332 2.36443 8.98147L2.54377 9.34614L3.81043 9.5288L2.89444 10.4241L3.1071 11.6808L1.97844 11.0808L1.16043 11.5135C0.441197 13.6028 0.298877 15.8474 0.748441 18.0108C1.24191 20.3701 2.4095 22.5355 4.10953 24.2442C5.80955 25.953 7.96895 27.1316 10.3257 27.6371C12.6825 28.1426 15.1353 27.9533 17.3866 27.0921C19.6378 26.2309 21.5908 24.7349 23.0084 22.7855C23.2044 21.3855 21.7418 22.4915 21.7418 22.4915M4.00843 14.1221L4.1031 14.6861L3.59644 14.4195L3.08977 14.6861L3.18444 14.1221L2.77576 13.7221L3.34378 13.6375L3.59711 13.1275L3.85377 13.6375L4.41777 13.7221L4.00843 14.1221Z" fill="#004795"/>
<path d="M28.5448 22.4435C28.5448 22.723 28.4772 22.9983 28.3478 23.2461C28.2183 23.4938 28.0309 23.7065 27.8015 23.8662C27.2507 24.2614 26.5835 24.4611 25.9061 24.4335C25.484 24.4364 25.0631 24.3876 24.6528 24.2882C24.2626 24.1909 23.8899 24.0335 23.5482 23.8215C23.6428 23.6388 23.7408 23.4328 23.8355 23.1995L24.0622 22.5642L24.3088 22.6388L24.2515 23.3008C24.3311 23.3673 24.4184 23.4239 24.5115 23.4695C24.6195 23.5268 24.7782 23.5982 24.9848 23.6822C25.3607 23.8386 25.7637 23.919 26.1708 23.9188C26.5734 23.941 26.9705 23.8175 27.2895 23.5708C27.4273 23.4469 27.5356 23.2936 27.6063 23.1223C27.6771 22.9509 27.7085 22.7659 27.6982 22.5808C27.7027 22.412 27.6594 22.2453 27.5733 22.0999C27.4872 21.9546 27.3618 21.8366 27.2115 21.7595C27.0444 21.6642 26.8704 21.5817 26.6908 21.5128C26.4757 21.4258 26.2558 21.3512 26.0321 21.2895C25.4237 21.1509 24.8394 20.922 24.2988 20.6102C24.1251 20.4993 23.9826 20.3457 23.885 20.1641C23.7875 19.9825 23.738 19.7789 23.7415 19.5728C23.7366 19.3046 23.7989 19.0395 23.9228 18.8015C24.0467 18.5636 24.2283 18.3605 24.4508 18.2108C24.9856 17.8477 25.623 17.6665 26.2688 17.6942C26.6422 17.6908 27.0149 17.7281 27.3801 17.8055C27.7057 17.8791 28.0246 17.9797 28.3335 18.1062L28.0768 18.7108C28.0005 18.9067 27.9362 19.1071 27.8842 19.3108L27.6101 19.2502L27.6608 18.6962C27.4992 18.5689 27.3161 18.4716 27.1202 18.4088C26.7841 18.2689 26.4235 18.1978 26.0595 18.1995C25.6651 18.1843 25.2749 18.2853 24.9375 18.4902C24.8072 18.577 24.7009 18.6953 24.6283 18.8341C24.5557 18.9728 24.5192 19.1276 24.5222 19.2842C24.5217 19.4595 24.5752 19.6308 24.6755 19.7747C24.7759 19.9185 24.9181 20.028 25.0828 20.0882C25.5124 20.2851 25.9586 20.4435 26.4162 20.5615C27.0223 20.6849 27.5892 20.954 28.0682 21.3455C28.2191 21.4865 28.3396 21.657 28.4222 21.8465C28.5047 22.0359 28.5476 22.2402 28.5482 22.4468" fill="#505154"/>
<path d="M29.1439 17.5265V17.2799L29.7652 17.1885C29.9138 17.1612 30.1165 17.1105 30.3832 17.0332H30.5625L30.5459 18.3665V22.3939L30.5799 23.9585L31.1272 24.0632V24.3065L30.1812 24.2792L29.2078 24.3065V24.0599L29.7892 23.9552L29.8165 22.3979V19.2645L29.7658 17.6292L29.1439 17.5265Z" fill="#505154"/>
<path d="M35.3422 23.0663C35.1307 23.4517 34.8249 23.7772 34.4535 24.0123C34.2522 24.1369 34.0367 24.2367 33.8115 24.3096C33.5912 24.376 33.3622 24.409 33.1322 24.4076C32.818 24.4256 32.5037 24.3757 32.2105 24.2615C31.9173 24.1473 31.6521 23.9714 31.4328 23.7456C31.0001 23.2294 30.7824 22.5666 30.8249 21.8943C30.8086 21.1725 31.0658 20.4712 31.5448 19.931C31.7593 19.6747 32.0276 19.4689 32.3306 19.3282C32.6337 19.1875 32.9641 19.1154 33.2982 19.117C33.5507 19.1011 33.8038 19.1364 34.0424 19.2206C34.281 19.3048 34.5002 19.4362 34.6869 19.607C34.8605 19.7769 34.9954 19.9824 35.0822 20.2093C35.1691 20.4362 35.2059 20.6792 35.1902 20.9216L35.2242 21.2796H31.6055V21.817C31.5797 22.3401 31.7441 22.8549 32.0682 23.2663C32.2246 23.4466 32.4199 23.5892 32.6392 23.6834C32.8586 23.7776 33.0964 23.821 33.3349 23.8103C33.531 23.8139 33.7266 23.7901 33.9162 23.7396C34.0968 23.6888 34.2679 23.6088 34.4229 23.503C34.5692 23.4083 34.705 23.2983 34.8282 23.175C34.9253 23.0818 35.0124 22.9788 35.0882 22.8676L35.3422 23.0663ZM31.6628 20.8736L33.9535 20.823L34.4095 20.789C34.4334 20.4501 34.3337 20.114 34.1288 19.843C34.0217 19.7317 33.8914 19.6452 33.7472 19.5897C33.603 19.5342 33.4483 19.511 33.2942 19.5216C33.0625 19.5168 32.8326 19.5634 32.6211 19.6581C32.4096 19.7527 32.2217 19.893 32.0708 20.069C31.8757 20.3027 31.736 20.5776 31.6622 20.873" fill="#505154"/>
<path d="M40.0845 23.0664C39.8717 23.452 39.5648 23.7774 39.1925 24.0124C38.9932 24.1363 38.7799 24.2361 38.5571 24.3098C38.3357 24.3759 38.1056 24.4089 37.8745 24.4078C37.5608 24.4257 37.247 24.3759 36.9543 24.2617C36.6616 24.1474 36.397 23.9715 36.1785 23.7458C35.7433 23.2308 35.5242 22.5673 35.5671 21.8944C35.5505 21.1719 35.8091 20.4701 36.2905 19.9311C36.504 19.6747 36.7717 19.4687 37.0742 19.328C37.3768 19.1872 37.7068 19.1152 38.0405 19.1171C38.293 19.101 38.5462 19.1361 38.7848 19.2203C39.0235 19.3045 39.2426 19.436 39.4291 19.6071C39.6026 19.7773 39.7376 19.9827 39.825 20.2095C39.9124 20.4363 39.9502 20.6792 39.9358 20.9218L39.9665 21.2798H36.3511V21.8171C36.3237 22.3404 36.4883 22.8558 36.8138 23.2664C36.97 23.447 37.1652 23.5898 37.3846 23.684C37.604 23.7782 37.842 23.8215 38.0805 23.8104C38.2766 23.8141 38.4723 23.7903 38.6618 23.7398C38.8421 23.6882 39.0132 23.6083 39.1685 23.5031C39.3151 23.4074 39.452 23.2976 39.5771 23.1751C39.6713 23.0811 39.7562 22.9782 39.8305 22.8678L40.0845 23.0664ZM36.4051 20.8738L38.6958 20.8231L39.1551 20.7891C39.1803 20.449 39.0778 20.1118 38.8678 19.8431C38.7613 19.7318 38.6316 19.6454 38.4879 19.5898C38.3443 19.5343 38.1901 19.5111 38.0365 19.5218C37.8059 19.518 37.5773 19.5649 37.3667 19.659C37.1562 19.7531 36.9688 19.8921 36.8178 20.0664C36.6239 20.301 36.4844 20.5756 36.4091 20.8704" fill="#505154"/>
<path d="M41.4353 24.1943V24.8463L41.4686 26.4036L42.1353 26.5116V26.7483L41.0686 26.7283L40.106 26.7483V26.5116L40.6773 26.4036L40.7006 24.8463V21.3256L40.6773 19.687L40.0286 19.579V19.3423C40.1212 19.3429 40.2138 19.3384 40.3059 19.329C40.3726 19.319 40.4953 19.2983 40.678 19.2623C40.8606 19.2263 41.0699 19.181 41.2999 19.117H41.5093L41.4346 20.0763C41.5409 19.9219 41.6632 19.7792 41.7993 19.6503C41.9214 19.5299 42.0602 19.4275 42.2113 19.3463C42.34 19.2747 42.4758 19.2169 42.6166 19.1736C42.7537 19.1329 42.8963 19.1135 43.0393 19.1163C43.3169 19.1066 43.5929 19.1631 43.8444 19.2813C44.0958 19.3994 44.3155 19.5757 44.4853 19.7956C44.8661 20.3089 45.0582 20.9378 45.0293 21.5763C45.0437 22.3095 44.786 23.022 44.3059 23.5763C44.0767 23.8418 43.7932 24.055 43.4746 24.2016C43.1386 24.3406 42.7775 24.4087 42.4139 24.4016C42.242 24.3989 42.0709 24.3765 41.904 24.335C41.816 24.315 41.7313 24.291 41.6506 24.2683C41.5768 24.2464 41.5046 24.2192 41.4346 24.187M41.4346 23.599L41.9313 23.839C42.1728 23.9458 42.4346 23.9988 42.6986 23.9943C42.9211 23.9908 43.139 23.9306 43.3317 23.8195C43.5244 23.7083 43.6856 23.5498 43.7999 23.359C43.9453 23.1378 44.0576 22.8966 44.1333 22.643C44.2126 22.3651 44.2512 22.0772 44.2479 21.7883C44.2797 21.2452 44.1327 20.7066 43.8293 20.255C43.6882 20.0736 43.5055 19.9288 43.2966 19.8329C43.0877 19.7371 42.8588 19.693 42.6293 19.7043C42.4557 19.6953 42.2827 19.7317 42.1275 19.8099C41.9722 19.8881 41.84 20.0054 41.744 20.1503C41.5161 20.5454 41.4103 20.9992 41.4399 21.4543L41.4346 23.599Z" fill="#505154"/>
<path d="M46.0866 21.4082H48.9259L48.6853 21.9069H45.8353L46.0866 21.4082Z" fill="#505154"/>
<path d="M55.2562 17.8411L56.4122 17.8171V18.0771L55.8549 18.1817V19.5504L55.9055 22.5811L55.9562 23.3811C55.9342 23.577 55.9682 23.7751 56.0542 23.9524L56.6222 24.0571V24.3004L55.5242 24.2731L54.5209 24.3004V24.0571L55.0782 23.9524L55.1322 22.5737L55.0782 18.1811L52.9189 24.3004H52.2602L50.0942 18.1811L50.0669 20.3404V23.9524L50.6582 24.0571V24.3004L49.7696 24.2731L48.7962 24.3004V24.0571L49.3535 23.9524C49.4049 23.5877 49.4218 23.219 49.4042 22.8511C49.4042 22.6584 49.4176 22.2904 49.4449 21.7324C49.4722 21.1744 49.4855 20.7084 49.4855 20.3404V18.9077L49.4622 18.5364C49.4622 18.2931 49.4455 18.1651 49.4115 18.1544L48.9382 18.0631V17.8164L50.1342 17.8404H50.7729L52.7362 23.4831L54.6589 17.8404L55.2562 17.8411Z" fill="#505154"/>
<path d="M60.2085 23.0665C60.0123 23.5129 59.6873 23.8906 59.2752 24.1512C58.9876 24.312 58.6652 24.4001 58.3358 24.4078C58.134 24.4171 57.9324 24.386 57.7427 24.3164C57.553 24.2468 57.3791 24.1401 57.2312 24.0025C57.0986 23.8832 56.9928 23.7373 56.9205 23.5743C56.8482 23.4113 56.8112 23.2348 56.8118 23.0565C56.8215 22.7782 56.9039 22.5072 57.051 22.2707C57.198 22.0341 57.4045 21.8403 57.6498 21.7085C58.2986 21.3133 59.0503 21.1204 59.8092 21.1545H60.2485V20.8332C60.2845 20.4874 60.1824 20.1414 59.9645 19.8705C59.8511 19.7636 59.7162 19.6821 59.5689 19.6314C59.4215 19.5807 59.265 19.562 59.1098 19.5765C58.8067 19.5751 58.5058 19.6276 58.2212 19.7318L57.7818 19.9045L57.8058 20.4178L57.5898 20.4845L57.1605 19.5078C57.2992 19.4469 57.529 19.3658 57.8498 19.2645C58.298 19.151 58.7598 19.101 59.2219 19.1158C59.6476 19.1003 60.0669 19.2223 60.4178 19.4638C60.5665 19.5689 60.687 19.709 60.7684 19.8719C60.8498 20.0347 60.8897 20.2152 60.8845 20.3972V22.6665C60.8791 22.9489 60.896 23.2314 60.9352 23.5112C60.9614 23.609 60.9942 23.705 61.0332 23.7985C61.0625 23.8514 61.1001 23.8994 61.1445 23.9405L61.5265 24.0552V24.3052L61.0198 24.2885L60.7358 24.2818H60.5772C60.5148 24.2815 60.4525 24.2871 60.3912 24.2985C60.3372 24.2985 60.2932 24.1738 60.2578 23.9338C60.2478 23.8085 60.2412 23.7178 60.2372 23.6498C60.2138 23.4065 60.2038 23.2105 60.2038 23.0618M60.2038 21.5652L59.7205 21.5485C59.4256 21.5448 59.1318 21.5846 58.8485 21.6665C58.6002 21.738 58.3636 21.8448 58.1458 21.9838C57.9782 22.098 57.8357 22.2452 57.7272 22.4165C57.6326 22.5809 57.5836 22.7675 57.5852 22.9572C57.5863 23.1775 57.6695 23.3895 57.8185 23.5518C57.9067 23.6369 58.0113 23.7033 58.1259 23.7468C58.2405 23.7903 58.3627 23.8102 58.4852 23.8052C58.7252 23.8153 58.964 23.7649 59.1795 23.6586C59.395 23.5524 59.5803 23.3937 59.7185 23.1972C59.8739 22.9749 59.9936 22.7297 60.0732 22.4705C60.1611 22.1768 60.2044 21.8717 60.2018 21.5652" fill="#505154"/>
<path d="M62.4502 22.4592C62.4315 22.808 62.4766 23.1573 62.5835 23.4898C62.6178 23.5855 62.6813 23.668 62.7651 23.7255C62.8488 23.7831 62.9486 23.8128 63.0502 23.8105C63.1966 23.8119 63.3405 23.7721 63.4655 23.6958C63.578 23.6276 63.6842 23.5496 63.7829 23.4625L63.9588 23.6312C63.8922 23.7386 63.814 23.8383 63.7255 23.9285C63.6649 23.9952 63.5922 24.0618 63.5095 24.1412C63.2947 24.3251 63.018 24.4204 62.7355 24.4078C62.5961 24.4134 62.4573 24.3882 62.3288 24.3339C62.2003 24.2796 62.0854 24.1976 61.9922 24.0938C61.7928 23.8473 61.6927 23.5351 61.7115 23.2185V19.6572L61.1302 19.6978V19.4105L61.7115 19.2418L61.6642 18.0625L62.4855 17.8398L62.4448 19.2592L63.6882 19.2425L63.5095 19.6752H62.4429L62.4502 22.4592Z" fill="#505154"/>
<path d="M65.5559 22.3851L65.5865 23.9531L66.1545 24.0578V24.3011L65.1879 24.2738L64.2179 24.3011V24.0578L64.7992 23.9531L64.8265 22.3958V21.3518L64.7759 19.7131L64.1439 19.6118V19.3651C64.2825 19.3484 64.4212 19.3278 64.5492 19.3111L64.7759 19.2738L65.3905 19.1151H65.5732L65.5559 20.4484V22.3851ZM64.6739 17.6344C64.6724 17.5698 64.6843 17.5055 64.7087 17.4457C64.7331 17.3858 64.7696 17.3316 64.8159 17.2864C64.916 17.1885 65.048 17.1298 65.1879 17.1211C65.2554 17.1207 65.3222 17.1347 65.3839 17.162C65.4456 17.1894 65.5008 17.2295 65.5459 17.2798C65.5943 17.3231 65.633 17.3762 65.6592 17.4356C65.6854 17.4951 65.6986 17.5595 65.6979 17.6244C65.7005 17.6894 65.6895 17.7543 65.6656 17.8148C65.6418 17.8753 65.6055 17.9301 65.5592 17.9758C65.4588 18.0725 65.3271 18.13 65.1879 18.1378C65.053 18.1357 64.9238 18.0826 64.8265 17.9891C64.7324 17.8947 64.6773 17.7677 64.6739 17.6344Z" fill="#505154"/>
<path d="M69.9122 23.1158L70.1348 23.3158C69.913 23.5898 69.6522 23.8299 69.3608 24.0285C69.0081 24.2798 68.5846 24.4124 68.1515 24.4071C67.843 24.4185 67.5354 24.3655 67.2485 24.2516C66.9615 24.1376 66.7015 23.9651 66.4848 23.7451C66.2663 23.5077 66.0973 23.2291 65.9877 22.9257C65.878 22.6223 65.8299 22.3 65.8462 21.9778C65.8372 21.6032 65.9037 21.2306 66.0419 20.8823C66.18 20.534 66.3869 20.2171 66.6502 19.9505C66.9059 19.6801 67.2153 19.4662 67.5586 19.3224C67.9019 19.1787 68.2714 19.1083 68.6435 19.1158C68.9484 19.1096 69.2522 19.1547 69.5422 19.2491L69.9135 19.3671L69.5895 20.4518L69.3395 20.4011V19.9145C69.2203 19.8332 69.0922 19.7661 68.9575 19.7145C68.746 19.6196 68.5166 19.5712 68.2848 19.5725C68.05 19.564 67.8167 19.6122 67.6044 19.7127C67.3921 19.8133 67.207 19.9634 67.0648 20.1505C66.7502 20.6082 66.5957 21.1571 66.6255 21.7118C66.5908 22.2689 66.7616 22.8194 67.1055 23.2591C67.2742 23.4457 67.4825 23.592 67.7152 23.6873C67.948 23.7826 68.1991 23.8245 68.4502 23.8098C68.7769 23.8185 69.0987 23.7279 69.3728 23.5498C69.4942 23.4685 69.6028 23.3911 69.6935 23.3165C69.7716 23.2554 69.8449 23.1886 69.9128 23.1165" fill="#505154"/>
<path d="M74.5335 22.7428C74.5315 22.9747 74.4739 23.2028 74.3657 23.4079C74.2575 23.6131 74.1018 23.7894 73.9115 23.9221C73.4798 24.2516 72.9477 24.4223 72.4049 24.4054C72.0526 24.4053 71.7025 24.3495 71.3676 24.2401C71.2089 24.1794 71.0536 24.1114 70.9049 24.0401C70.7562 23.9688 70.6109 23.8781 70.4622 23.7801L70.8375 23.2934L71.1582 22.8068L71.3676 22.9148L71.1675 23.4521C71.3407 23.5887 71.5302 23.7034 71.7315 23.7934C72.0121 23.9044 72.3119 23.9583 72.6135 23.9521C72.925 23.9571 73.2302 23.8638 73.4856 23.6854C73.6 23.613 73.6942 23.5126 73.7592 23.3938C73.8243 23.275 73.8581 23.1416 73.8575 23.0061C73.861 22.8824 73.832 22.7599 73.7735 22.6508C73.7151 22.5417 73.6291 22.4498 73.5242 22.3841C73.2046 22.2019 72.8611 22.0654 72.5035 21.9788C72.0598 21.8606 71.6312 21.6918 71.2262 21.4754C71.0683 21.3801 70.94 21.2427 70.8559 21.0785C70.7718 20.9143 70.7352 20.7299 70.7502 20.5461C70.7472 20.3356 70.8 20.1281 70.9033 19.9447C71.0066 19.7613 71.1567 19.6086 71.3382 19.5021C71.5356 19.3728 71.7523 19.2758 71.9802 19.2148C72.2367 19.1449 72.5017 19.1108 72.7675 19.1134C73.0601 19.1161 73.3519 19.1444 73.6395 19.1981C73.8015 19.2321 73.9269 19.2588 74.0182 19.2828C74.1065 19.307 74.1933 19.3364 74.2782 19.3708L73.9062 20.3641L73.7062 20.2974L73.7229 19.8481C73.5515 19.7683 73.3729 19.7049 73.1896 19.6588C73.0782 19.6292 72.9654 19.6056 72.8515 19.5881C72.7542 19.5743 72.6559 19.5676 72.5575 19.5681C72.2649 19.5512 71.974 19.623 71.7229 19.7741C71.6327 19.8308 71.5584 19.9095 71.507 20.0028C71.4556 20.0961 71.4287 20.2009 71.4289 20.3074C71.4298 20.4205 71.4583 20.5316 71.5118 20.6311C71.5654 20.7307 71.6424 20.8157 71.7362 20.8788C72.099 21.0794 72.4894 21.2252 72.8949 21.3114C73.3389 21.4043 73.7567 21.5947 74.1182 21.8688C74.2517 21.971 74.3586 22.104 74.4297 22.2564C74.5009 22.4088 74.5342 22.5761 74.5269 22.7441" fill="#505154"/>
<path d="M19.0111 7.23828L19.5758 8.38161L20.8424 8.56428L19.9251 9.45428L20.1418 10.7116L19.0084 10.1209L17.8751 10.7116L18.0918 9.45428L17.1751 8.56428L18.4418 8.38161L19.0111 7.23828Z" fill="#E00028"/>
<path d="M24.2083 11.0879L24.775 12.2312L26.0417 12.4159L25.1243 13.3066L25.341 14.5612L24.2077 13.9672L23.0743 14.5612L23.291 13.3066L22.3743 12.4159L23.641 12.2312L24.2083 11.0879Z" fill="#E00028"/>
<path d="M21.6966 0L22.4873 1.59533L24.2526 1.85333L22.9733 3.094L23.2753 4.84933L21.6966 4.02L20.1186 4.84933L20.4179 3.094L19.14 1.856L20.9079 1.598L21.6966 0Z" fill="#E00028"/>
<mask id="mask0_989_52072" style="mask-type:luminance" maskUnits="userSpaceOnUse" x="65" y="25" width="3" height="4">
<path d="M65.1243 25.5391H67.8449C67.8587 25.5391 67.8719 25.5445 67.8817 25.5543C67.8914 25.564 67.8969 25.5773 67.8969 25.5911V28.2577C67.8969 28.2713 67.8915 28.2844 67.8819 28.294C67.8723 28.3037 67.8592 28.3091 67.8456 28.3091H65.1243C65.1108 28.3091 65.0979 28.3037 65.0884 28.2942C65.0789 28.2847 65.0736 28.2718 65.0736 28.2584V25.5917C65.0733 25.5849 65.0744 25.5781 65.0769 25.5717C65.0793 25.5653 65.083 25.5595 65.0877 25.5546C65.0924 25.5497 65.0981 25.5458 65.1044 25.5431C65.1107 25.5404 65.1174 25.5391 65.1243 25.5391Z" fill="white"/>
</mask>
<g mask="url(#mask0_989_52072)">
<path d="M67.5733 26.5508H65.392V28.3768H67.5733V26.5508Z" fill="white"/>
<path d="M65.6238 26.5664H64.9818V28.3757H65.6238V26.5664Z" fill="#E00028"/>
<path d="M66.7976 26.5664H66.1556V28.3757H66.7976V26.5664Z" fill="#E00028"/>
<path d="M67.9187 26.5664H67.2767V28.3757H67.9187V26.5664Z" fill="#E00028"/>
<path d="M67.6323 25.541H65.3276C65.2592 25.5408 65.1935 25.5677 65.1448 25.6158C65.0961 25.6639 65.0683 25.7293 65.0676 25.7977V26.565C65.4844 26.8426 65.9719 26.9948 66.4726 27.0038C66.9732 27.0128 67.4659 26.8781 67.8923 26.6157V25.7977C67.8922 25.7637 67.8854 25.7301 67.8723 25.6988C67.8591 25.6675 67.8399 25.6391 67.8158 25.6152C67.7916 25.5914 67.7629 25.5725 67.7314 25.5598C67.7 25.547 67.6663 25.5407 67.6323 25.541Z" fill="#004795"/>
<path d="M65.6932 25.7285L65.7759 25.8985L65.9652 25.9278L65.8319 26.0612L65.8639 26.2485L65.6959 26.1612L65.5279 26.2485L65.5599 26.0612L65.4212 25.9278L65.6105 25.8985L65.6932 25.7285Z" fill="white"/>
<path d="M66.4496 25.7285L66.5349 25.8985L66.7223 25.9278L66.5889 26.0612L66.6203 26.2485L66.4523 26.1612L66.2849 26.2485L66.3163 26.0612L66.1829 25.9278L66.3729 25.8985L66.4496 25.7285Z" fill="white"/>
<path d="M66.1071 26.3027L66.1925 26.4727L66.3798 26.5021L66.2465 26.6354L66.2778 26.8201L66.1105 26.7327L65.9425 26.8201L65.9745 26.6354L65.8411 26.5021L66.0285 26.4727L66.1071 26.3027Z" fill="white"/>
<path d="M66.9346 26.3027L67.0193 26.4727L67.2066 26.5021L67.0733 26.6354L67.1046 26.8201L66.9373 26.7327L66.7693 26.8201L66.8006 26.6354L66.6673 26.5021L66.8546 26.4727L66.9346 26.3027Z" fill="white"/>
<path d="M67.2771 25.7285L67.3624 25.8985L67.5497 25.9278L67.4164 26.0612L67.4477 26.2485L67.2804 26.1612L67.1124 26.2485L67.1444 26.0612L67.011 25.9278L67.1984 25.8985L67.2771 25.7285Z" fill="white"/>
</g>
</g>
</g>
<defs>
<filter id="filter0_d_989_52072" x="-641" y="-5669" width="1928" height="5871" filterUnits="userSpaceOnUse" color-interpolation-filters="sRGB">
<feFlood flood-opacity="0" result="BackgroundImageFix"/>
<feColorMatrix in="SourceAlpha" type="matrix" values="0 0 0 0 0 0 0 0 0 0 0 0 0 0 0 0 0 0 127 0" result="hardAlpha"/>
<feOffset dy="4"/>
<feGaussianBlur stdDeviation="2"/>
<feComposite in2="hardAlpha" operator="out"/>
<feColorMatrix type="matrix" values="0 0 0 0 0 0 0 0 0 0 0 0 0 0 0 0 0 0 0.25 0"/>
<feBlend mode="normal" in2="BackgroundImageFix" result="effect1_dropShadow_989_52072"/>
<feBlend mode="normal" in="SourceGraphic" in2="effect1_dropShadow_989_52072" result="shape"/>
</filter>
<clipPath id="clip0_989_52072">
<rect width="74.0413" height="28.3093" fill="white" transform="translate(0.491577)"/>
</clipPath>
</defs>
</svg>
