<svg width="70" height="18" viewBox="0 0 70 18" fill="none" xmlns="http://www.w3.org/2000/svg">
<rect width="70" height="18" fill="#1E1E1E"/>
<path d="M-2183 -17183C-2183 -17184.1 -2182.1 -17185 -2181 -17185H18007C18008.1 -17185 18009 -17184.1 18009 -17183V2652C18009 2653.11 18008.1 2654 18007 2654H-2181C-2182.1 2654 -2183 2653.11 -2183 2652V-17183Z" fill="black"/>
<path d="M-2181 -17185V-17184H18007V-17185V-17186H-2181V-17185ZM18009 -17183H18008V2652H18009H18010V-17183H18009ZM18007 2654V2653H-2181V2654V2655H18007V2654ZM-2183 2652H-2182V-17183H-2183H-2184V2652H-2183ZM-2181 2654V2653C-2181.55 2653 -2182 2652.55 -2182 2652H-2183H-2184C-2184 2653.66 -2182.66 2655 -2181 2655V2654ZM18009 2652H18008C18008 2652.55 18007.6 2653 18007 2653V2654V2655C18008.7 2655 18010 2653.66 18010 2652H18009ZM18007 -17185V-17184C18007.6 -17184 18008 -17183.6 18008 -17183H18009H18010C18010 -17184.7 18008.7 -17186 18007 -17186V-17185ZM-2181 -17185V-17186C-2182.66 -17186 -2184 -17184.7 -2184 -17183H-2183H-2182C-2182 -17183.6 -2181.55 -17184 -2181 -17184V-17185Z" fill="white" fill-opacity="0.1"/>
<path d="M-1081 -6373C-1081 -6374.1 -1080.1 -6375 -1079 -6375H16922C16923.1 -6375 16924 -6374.1 16924 -6373V1911C16924 1912.1 16923.1 1913 16922 1913H-1079C-1080.1 1913 -1081 1912.1 -1081 1911V-6373Z" fill="#444444"/>
<path d="M-1079 -6375V-6374H16922V-6375V-6376H-1079V-6375ZM16924 -6373H16923V1911H16924H16925V-6373H16924ZM16922 1913V1912H-1079V1913V1914H16922V1913ZM-1081 1911H-1080V-6373H-1081H-1082V1911H-1081ZM-1079 1913V1912C-1079.55 1912 -1080 1911.55 -1080 1911H-1081H-1082C-1082 1912.66 -1080.66 1914 -1079 1914V1913ZM16924 1911H16923C16923 1911.55 16922.6 1912 16922 1912V1913V1914C16923.7 1914 16925 1912.66 16925 1911H16924ZM16922 -6375V-6374C16922.6 -6374 16923 -6373.55 16923 -6373H16924H16925C16925 -6374.66 16923.7 -6376 16922 -6376V-6375ZM-1079 -6375V-6376C-1080.66 -6376 -1082 -6374.66 -1082 -6373H-1081H-1080C-1080 -6373.55 -1079.55 -6374 -1079 -6374V-6375Z" fill="white" fill-opacity="0.1"/>
<g filter="url(#filter0_d_989_52072)">
<rect x="-508" y="-5674" width="1920" height="5863" rx="8" fill="#F5F5F5"/>
<rect x="-507.5" y="-5673.5" width="1919" height="5862" rx="7.5" stroke="white" stroke-opacity="0.1"/>
<rect width="1920" height="580" transform="translate(-508 -441)" fill="white"/>
<rect x="-16.0027" y="-10.415" width="102.163" height="38.83" fill="white" stroke="#E2E2E2" stroke-width="1.16996"/>
<g clip-path="url(#clip0_989_52072)">
<path d="M62.7698 8.9082H64.3951V2.60353H64.4185L67.6551 8.9082H69.7265V0.478204H68.1031V6.78287H68.0758L64.8558 0.478204H62.7698V8.9082ZM54.0725 8.9082H55.6945V2.60353H55.7218L58.9551 8.9082H61.0265V0.478204H59.4045V6.78287H59.3805L56.1571 0.478204H54.0725V8.9082ZM44.5845 8.9082H46.3418L47.0818 6.97487H50.5111L51.2378 8.9082H53.1165L49.7951 0.478204H47.8825L44.5845 8.9082ZM50.0378 5.64754H47.5645L48.7911 2.16754H48.8111L50.0378 5.64754ZM34.0691 8.9082H35.6911V1.97487L35.7145 1.95154L37.9918 8.90887H39.6171L41.8945 1.95154H41.9178V8.90887H43.5431V0.478204H40.8298L38.8158 6.86754H38.7925L36.7785 0.478204H34.0685L34.0691 8.9082ZM32.0825 0.636204C31.4283 0.427864 30.7449 0.326337 30.0585 0.335534C28.5685 0.335534 27.1018 1.02487 27.1018 2.90687C27.1018 5.69754 30.8085 5.03553 30.8085 6.6402C30.8085 7.4002 29.9505 7.7282 29.3051 7.7282C28.6345 7.71433 27.9776 7.5355 27.3925 7.20753L27.2338 8.7282C27.9368 8.94398 28.6678 9.05451 29.4031 9.0562C31.1131 9.0562 32.5791 8.35354 32.5791 6.5082C32.5791 3.6802 28.8725 4.29487 28.8725 2.83553C28.8712 2.66713 28.9062 2.50044 28.975 2.34673C29.0438 2.19303 29.1449 2.05593 29.2713 1.94471C29.3978 1.83349 29.5467 1.75076 29.7079 1.70214C29.8691 1.65351 30.0389 1.64011 30.2058 1.66287C30.7976 1.66627 31.3826 1.78917 31.9258 2.0242L32.0825 0.636204ZM18.6211 5.86687C18.6211 8.12754 19.9018 9.0562 22.0711 9.0562C24.2405 9.0562 25.5278 8.12687 25.5278 5.86687V0.478204H23.8285V5.34487C23.8285 6.78087 23.3691 7.72354 22.0718 7.72354C20.7745 7.72354 20.3178 6.78087 20.3178 5.34487V0.478204H18.6218L18.6211 5.86687ZM9.1098 8.91153H10.8665L11.5998 6.9782H15.0291L15.7558 8.91153H17.6365L14.3185 0.481535H12.4025L9.1098 8.91153ZM14.5598 5.65087H12.0931L13.3165 2.17087H13.3405L14.5598 5.65087ZM7.99447 0.687534C7.18925 0.44535 6.35192 0.326887 5.51113 0.336201C2.63913 0.336201 0.868469 1.95487 0.868469 4.8402C0.868469 7.6922 2.77046 9.05687 5.51113 9.05687C6.43847 9.03157 7.35851 8.88499 8.2478 8.62087V4.07953H4.82847V5.40754H6.62246V7.60754C6.25831 7.69423 5.88473 7.73499 5.51046 7.72887C5.11784 7.743 4.72669 7.67379 4.36275 7.52579C3.99882 7.3778 3.67037 7.15438 3.39903 6.87025C3.12769 6.58613 2.9196 6.24774 2.78851 5.87738C2.65742 5.50702 2.60629 5.11309 2.63847 4.72154C2.61144 4.31221 2.6723 3.90185 2.81698 3.51799C2.96165 3.13414 3.18678 2.78569 3.47725 2.49603C3.76773 2.20638 4.11684 1.98223 4.5011 1.83864C4.88536 1.69505 5.2959 1.63535 5.70514 1.66354C6.45462 1.66321 7.19624 1.81611 7.88446 2.11287L7.99447 0.687534Z" fill="#060707"/>
<path d="M36.9772 11.8714C36.9714 11.7951 36.9507 11.7206 36.9162 11.6523C36.8816 11.5839 36.8339 11.5231 36.7759 11.4732C36.7178 11.4233 36.6504 11.3853 36.5777 11.3614C36.5049 11.3376 36.4282 11.3283 36.3518 11.3341C35.9805 11.3341 35.6592 11.5774 35.6592 12.1854V12.5301C35.6592 13.0708 35.8992 13.3968 36.3418 13.3968C36.4215 13.4054 36.5021 13.3976 36.5787 13.3739C36.6553 13.3501 36.7261 13.3109 36.7869 13.2587C36.8477 13.2064 36.8972 13.1423 36.9322 13.0702C36.9672 12.9981 36.9871 12.9195 36.9905 12.8394V12.5861H36.3238V12.3194H37.2732V12.8394C37.2708 12.9557 37.2444 13.0702 37.1956 13.1757C37.1469 13.2812 37.0768 13.3755 36.9898 13.4527C36.9029 13.5298 36.8009 13.5881 36.6903 13.6239C36.5797 13.6598 36.4628 13.6723 36.3472 13.6608C35.7018 13.6608 35.3705 13.2314 35.3705 12.5321V12.1861C35.3505 12.0457 35.3612 11.9027 35.4019 11.7669C35.4425 11.631 35.5121 11.5056 35.6059 11.3993C35.6997 11.293 35.8154 11.2082 35.9451 11.1509C36.0748 11.0937 36.2154 11.0652 36.3572 11.0674C36.4698 11.0597 36.5829 11.0744 36.6898 11.1107C36.7967 11.1471 36.8953 11.2044 36.9798 11.2792C37.0644 11.354 37.1332 11.4449 37.1823 11.5466C37.2314 11.6483 37.2598 11.7587 37.2658 11.8714H36.9772Z" fill="#060707"/>
<path d="M37.8095 12.8078V12.5005C37.8032 12.3941 37.8188 12.2876 37.8553 12.1875C37.8917 12.0874 37.9482 11.9958 38.0213 11.9183C38.0944 11.8408 38.1825 11.779 38.2804 11.7368C38.3782 11.6946 38.4836 11.6729 38.5901 11.6729C38.6967 11.6729 38.8021 11.6946 38.8999 11.7368C38.9977 11.779 39.0859 11.8408 39.159 11.9183C39.2321 11.9958 39.2886 12.0874 39.325 12.1875C39.3614 12.2876 39.377 12.3941 39.3708 12.5005V12.7338H38.1001V12.8285C38.0924 12.8998 38.1 12.972 38.1225 13.0402C38.1449 13.1083 38.1817 13.1709 38.2303 13.2237C38.2789 13.2764 38.3383 13.3182 38.4044 13.3462C38.4704 13.3742 38.5417 13.3877 38.6135 13.3858C38.6995 13.3958 38.7865 13.3791 38.8627 13.338C38.9389 13.2968 39.0006 13.2332 39.0395 13.1558H39.3435C39.298 13.3093 39.1999 13.4419 39.0664 13.5303C38.9329 13.6187 38.7726 13.6572 38.6135 13.6392C38.5037 13.646 38.3938 13.629 38.2913 13.5893C38.1888 13.5495 38.0961 13.488 38.0197 13.409C37.9432 13.33 37.8849 13.2353 37.8486 13.1315C37.8123 13.0277 37.7989 12.9173 37.8095 12.8078ZM39.0835 12.5105V12.4765C39.092 12.4069 39.0856 12.3363 39.0648 12.2693C39.044 12.2023 39.0092 12.1406 38.9627 12.088C38.9162 12.0355 38.8591 11.9935 38.7952 11.9647C38.7313 11.9359 38.6619 11.921 38.5918 11.921C38.5217 11.921 38.4523 11.9359 38.3884 11.9647C38.3245 11.9935 38.2674 12.0355 38.2209 12.088C38.1744 12.1406 38.1396 12.2023 38.1188 12.2693C38.098 12.3363 38.0916 12.4069 38.1001 12.4765V12.5105H39.0835Z" fill="#060707"/>
<path d="M39.9727 11.6969H40.26V11.9909H40.2733C40.3166 11.8868 40.3922 11.7994 40.489 11.7416C40.5857 11.6837 40.6985 11.6585 40.8106 11.6695L40.922 11.6762V11.9429C40.8739 11.9353 40.8253 11.932 40.7767 11.9329C40.7111 11.9247 40.6445 11.9308 40.5815 11.9507C40.5184 11.9705 40.4604 12.0037 40.4113 12.048C40.3623 12.0922 40.3233 12.1465 40.2971 12.2072C40.2708 12.2679 40.258 12.3335 40.2593 12.3995V13.6055H39.972L39.9727 11.6969Z" fill="#060707"/>
<path d="M41.3763 11.6969H41.6636V11.9976H41.677C41.7116 11.8911 41.7819 11.7997 41.876 11.739C41.9701 11.6783 42.0823 11.6519 42.1936 11.6643C42.3105 11.6544 42.4272 11.6844 42.5248 11.7495C42.6224 11.8145 42.695 11.9106 42.731 12.0223H42.7443C42.7921 11.9089 42.8742 11.8135 42.979 11.7492C43.0839 11.685 43.2063 11.6553 43.329 11.6643C43.4115 11.6531 43.4955 11.6604 43.5749 11.6857C43.6543 11.7111 43.727 11.7538 43.7879 11.8107C43.8487 11.8676 43.8961 11.9374 43.9266 12.0149C43.9571 12.0925 43.97 12.1758 43.9643 12.2589V13.6069H43.677V12.3336C43.682 12.2775 43.6747 12.221 43.6554 12.168C43.6361 12.1151 43.6053 12.0671 43.5653 12.0274C43.5254 11.9877 43.4771 11.9574 43.424 11.9385C43.371 11.9196 43.3143 11.9127 43.2583 11.9183C43.1984 11.9178 43.1391 11.9294 43.0839 11.9525C43.0287 11.9756 42.9787 12.0096 42.9371 12.0525C42.8954 12.0955 42.8628 12.1464 42.8414 12.2023C42.8199 12.2581 42.81 12.3178 42.8123 12.3776V13.6109H42.5283V12.3443C42.5327 12.2868 42.5246 12.2291 42.5046 12.1751C42.4846 12.121 42.4532 12.072 42.4125 12.0312C42.3718 11.9904 42.3228 11.9589 42.2688 11.9389C42.2148 11.9188 42.1571 11.9106 42.0996 11.9149C42.0401 11.9141 41.9811 11.9255 41.9262 11.9486C41.8714 11.9717 41.8219 12.0059 41.781 12.0491C41.74 12.0922 41.7084 12.1434 41.6882 12.1994C41.668 12.2553 41.6596 12.3149 41.6636 12.3743V13.6076H41.3763V11.6969Z" fill="#060707"/>
<path d="M44.5185 13.0504C44.5185 12.7224 44.7485 12.493 45.1851 12.493H45.6985V12.297C45.6985 12.037 45.5331 11.9217 45.2725 11.9217C45.0118 11.9217 44.9111 12.0164 44.8671 12.1517H44.5865C44.6171 11.827 44.8838 11.665 45.2825 11.665C45.6678 11.665 45.9885 11.8337 45.9885 12.297V13.6077H45.7078V13.351H45.6978C45.6383 13.4437 45.5555 13.519 45.4577 13.5694C45.3598 13.6199 45.2504 13.6436 45.1405 13.6384C45.0597 13.6453 44.9785 13.6352 44.902 13.6086C44.8254 13.582 44.7554 13.5396 44.6964 13.4841C44.6374 13.4286 44.5907 13.3613 44.5595 13.2866C44.5282 13.2118 44.5131 13.1314 44.5151 13.0504M45.6978 12.9524V12.7324H45.1911C44.9211 12.7324 44.8091 12.8657 44.8091 13.0464C44.8105 13.096 44.8223 13.1449 44.8436 13.1897C44.865 13.2346 44.8954 13.2745 44.9331 13.307C44.9707 13.3394 45.0147 13.3636 45.0622 13.3781C45.1098 13.3926 45.1598 13.397 45.2091 13.391C45.2702 13.3954 45.3315 13.3873 45.3894 13.3674C45.4473 13.3475 45.5006 13.316 45.546 13.275C45.5915 13.234 45.6281 13.1842 45.6539 13.1286C45.6796 13.0731 45.6939 13.0129 45.6958 12.9517" fill="#060707"/>
<path d="M46.6556 11.6958H46.9429V12.0472H46.9562C46.994 11.9247 47.0736 11.8194 47.181 11.7496C47.2885 11.6798 47.417 11.6499 47.5443 11.6652C47.6303 11.655 47.7175 11.6641 47.7997 11.6918C47.8818 11.7194 47.9567 11.765 48.0191 11.8251C48.0815 11.8852 48.1297 11.9585 48.1604 12.0396C48.191 12.1206 48.2033 12.2075 48.1962 12.2938V13.6085H47.9056V12.3852C47.9056 12.0812 47.7536 11.9185 47.4729 11.9185C47.1149 11.9185 46.9396 12.1958 46.9396 12.5405V13.6118H46.6556V11.6958Z" fill="#060707"/>
<path d="M49.6586 13.6289L49.6079 13.7622C49.5066 14.0396 49.3779 14.3096 48.9899 14.3096C48.9288 14.309 48.8678 14.3046 48.8072 14.2962V14.0529C48.8531 14.0601 48.8995 14.0635 48.9459 14.0629C49.0376 14.0689 49.1281 14.0398 49.199 13.9815C49.27 13.9232 49.3161 13.84 49.3279 13.7489L49.3579 13.6409L48.6419 11.6982H48.9626L49.4959 13.3136H49.5092L50.0426 11.6982H50.3499L49.6586 13.6289Z" fill="#060707"/>
<path d="M52.2862 11.667C52.6915 11.667 52.9588 11.883 52.9588 12.2003H52.6888C52.6788 12.0583 52.5468 11.9063 52.2728 11.9063C52.0395 11.9063 51.8675 12.0177 51.8675 12.2137C51.8675 12.4503 52.1175 12.4803 52.3342 12.521C52.6955 12.5877 53.0008 12.6763 53.0008 13.0543C53.0008 13.4323 52.6935 13.6423 52.2508 13.6423C51.8422 13.6423 51.5482 13.4597 51.5482 13.1183H51.8288C51.8595 13.2943 51.9808 13.4057 52.2648 13.4057C52.5855 13.4057 52.7175 13.2603 52.7175 13.0883C52.7175 12.865 52.5082 12.8217 52.2375 12.767C51.8762 12.693 51.5822 12.6183 51.5822 12.243C51.5822 11.843 51.9155 11.6683 52.2815 11.6683" fill="#060707"/>
<path d="M53.7596 10.884C53.7885 10.8827 53.8173 10.8874 53.8443 10.8977C53.8712 10.9081 53.8958 10.9239 53.9164 10.9442C53.937 10.9644 53.9532 10.9887 53.9639 11.0156C53.9747 11.0424 53.9798 11.0711 53.9789 11.1C53.9789 11.1574 53.9561 11.2124 53.9156 11.253C53.875 11.2935 53.82 11.3163 53.7626 11.3163C53.7052 11.3163 53.6502 11.2935 53.6096 11.253C53.5691 11.2124 53.5463 11.1574 53.5463 11.1C53.5456 11.0717 53.5505 11.0436 53.5609 11.0173C53.5713 10.991 53.5869 10.967 53.6068 10.9469C53.6266 10.9267 53.6503 10.9107 53.6765 10.8999C53.7026 10.8891 53.7307 10.8837 53.7589 10.884M53.6169 11.6947H53.9043V13.6073H53.6169V11.6947Z" fill="#060707"/>
<path d="M54.6277 11.6957H54.915V12.0471H54.9283C54.966 11.9246 55.0455 11.8192 55.153 11.7494C55.2605 11.6796 55.3891 11.6497 55.5163 11.6651C55.6023 11.6553 55.6894 11.6646 55.7713 11.6924C55.8533 11.7202 55.9281 11.7658 55.9904 11.8258C56.0527 11.8859 56.101 11.959 56.1317 12.0399C56.1625 12.1208 56.175 12.2075 56.1683 12.2937V13.6084H55.8777V12.3851C55.8777 12.0811 55.7257 11.9184 55.445 11.9184C55.0837 11.9184 54.9117 12.1957 54.9117 12.5404V13.6117H54.6243L54.6277 11.6957Z" fill="#060707"/>
<path d="M56.7349 12.4844C56.725 12.3771 56.7383 12.2689 56.7739 12.1673C56.8096 12.0656 56.8667 11.9728 56.9414 11.8952C57.0161 11.8176 57.1066 11.7569 57.2069 11.7175C57.3071 11.678 57.4147 11.6606 57.5223 11.6664C57.6064 11.6556 57.6919 11.6615 57.7737 11.6839C57.8555 11.7063 57.9321 11.7446 57.9991 11.7967C58.066 11.8489 58.1219 11.9137 58.1637 11.9876C58.2054 12.0614 58.2321 12.1428 58.2423 12.227H57.9549C57.9349 12.1313 57.8797 12.0466 57.8002 11.9897C57.7207 11.9328 57.6227 11.9078 57.5256 11.9197C57.1923 11.9197 57.0223 12.1497 57.0223 12.4944V12.8224C57.0133 12.8928 57.0198 12.9643 57.0413 13.032C57.0627 13.0996 57.0986 13.1618 57.1465 13.2142C57.1944 13.2666 57.2531 13.3079 57.3186 13.3353C57.384 13.3628 57.4547 13.3756 57.5256 13.373C57.8229 13.373 57.9309 13.2477 57.9683 13.1064H58.2589C58.2423 13.363 58.0223 13.6397 57.5256 13.6397C57.4176 13.646 57.3095 13.6289 57.2088 13.5893C57.1081 13.5498 57.0172 13.4889 56.9423 13.4108C56.8675 13.3327 56.8104 13.2393 56.7752 13.137C56.74 13.0347 56.7274 12.926 56.7383 12.8184L56.7349 12.4844Z" fill="#060707"/>
<path d="M58.7 12.8078V12.5005C58.6938 12.3941 58.7094 12.2876 58.7458 12.1875C58.7822 12.0874 58.8387 11.9958 58.9118 11.9183C58.9849 11.8408 59.0731 11.779 59.1709 11.7368C59.2687 11.6946 59.3742 11.6729 59.4807 11.6729C59.5872 11.6729 59.6927 11.6946 59.7905 11.7368C59.8883 11.779 59.9765 11.8408 60.0496 11.9183C60.1227 11.9958 60.1792 12.0874 60.2156 12.1875C60.252 12.2876 60.2676 12.3941 60.2614 12.5005V12.7338H58.9907V12.8285C58.983 12.8998 58.9906 12.972 59.013 13.0402C59.0355 13.1083 59.0723 13.1709 59.1209 13.2237C59.1695 13.2764 59.2288 13.3182 59.2949 13.3462C59.361 13.3742 59.4323 13.3877 59.504 13.3858C59.5901 13.3958 59.6771 13.3791 59.7533 13.338C59.8295 13.2968 59.8912 13.2332 59.93 13.1558H60.234C60.1889 13.3088 60.0913 13.4411 59.9585 13.5294C59.8256 13.6178 59.666 13.6566 59.5074 13.6392C59.3974 13.6464 59.2871 13.6297 59.1843 13.5901C59.0814 13.5506 58.9884 13.4892 58.9116 13.4101C58.8348 13.331 58.7761 13.2362 58.7396 13.1322C58.703 13.0282 58.6896 12.9175 58.7 12.8078ZM59.974 12.5105V12.4765C59.9826 12.4069 59.9762 12.3363 59.9554 12.2693C59.9346 12.2023 59.8998 12.1406 59.8533 12.088C59.8068 12.0355 59.7497 11.9935 59.6858 11.9647C59.6218 11.9359 59.5525 11.921 59.4824 11.921C59.4122 11.921 59.3429 11.9359 59.279 11.9647C59.215 11.9935 59.1579 12.0355 59.1115 12.088C59.065 12.1406 59.0302 12.2023 59.0094 12.2693C58.9886 12.3363 58.9822 12.4069 58.9907 12.4765V12.5105H59.974Z" fill="#060707"/>
<path d="M62.2418 13.6081V11.4474H62.2278L61.6478 11.8687V11.5634L62.2418 11.1221H62.5284V13.6081H62.2418Z" fill="#060707"/>
<path d="M63.6344 13.1516C63.6701 13.2342 63.7315 13.3031 63.8094 13.3481C63.8873 13.3931 63.9777 13.4119 64.0671 13.4016C64.5537 13.4016 64.7191 12.9216 64.7057 12.3443H64.6891C64.6408 12.4687 64.5542 12.5745 64.4417 12.6464C64.3293 12.7184 64.1969 12.7526 64.0637 12.7443C63.9544 12.7468 63.8457 12.7263 63.7449 12.6841C63.644 12.6419 63.5531 12.5789 63.4782 12.4992C63.4033 12.4195 63.346 12.3249 63.3101 12.2216C63.2742 12.1183 63.2604 12.0086 63.2697 11.8996C63.2647 11.7875 63.2832 11.6756 63.3242 11.5712C63.3652 11.4667 63.4277 11.372 63.5077 11.2933C63.5877 11.2146 63.6834 11.1536 63.7884 11.1143C63.8935 11.0749 64.0057 11.0581 64.1177 11.065C64.5331 11.065 64.9891 11.295 64.9891 12.305C64.9891 13.2003 64.6951 13.6563 64.0597 13.6563C63.6204 13.6563 63.3704 13.423 63.3364 13.153L63.6344 13.1516ZM64.0971 11.3203C64.022 11.3203 63.9477 11.3359 63.879 11.3661C63.8103 11.3963 63.7485 11.4404 63.6977 11.4957C63.6469 11.5509 63.6081 11.6161 63.5838 11.6872C63.5595 11.7582 63.5501 11.8335 63.5564 11.9083C63.5558 11.9802 63.5692 12.0515 63.5961 12.1181C63.623 12.1848 63.6628 12.2455 63.7132 12.2968C63.7635 12.3481 63.8235 12.3889 63.8897 12.4171C63.9558 12.4452 64.0268 12.46 64.0987 12.4606C64.1706 12.4613 64.2419 12.4478 64.3086 12.4209C64.3752 12.394 64.4359 12.3542 64.4872 12.3039C64.5385 12.2535 64.5794 12.1935 64.6075 12.1274C64.6356 12.0612 64.6504 11.9902 64.6511 11.9183C64.6595 11.8414 64.6513 11.7635 64.6271 11.69C64.6029 11.6165 64.5632 11.549 64.5107 11.4922C64.4582 11.4353 64.3941 11.3904 64.3227 11.3604C64.2514 11.3304 64.1744 11.316 64.0971 11.3183" fill="#060707"/>
<path d="M65.502 12.324C65.502 11.5707 65.8159 11.0674 66.3773 11.0674C66.9386 11.0674 67.2486 11.5674 67.2486 12.324V12.412C67.2486 13.1654 66.9346 13.6587 66.3733 13.6587C65.812 13.6587 65.5013 13.1654 65.5013 12.412L65.502 12.324ZM65.7893 12.4087C65.7893 13.0274 66.0159 13.4087 66.3739 13.4087C66.7319 13.4087 66.962 13.03 66.962 12.4087V12.3274C66.962 11.7054 66.7353 11.324 66.3739 11.324C66.0126 11.324 65.7893 11.706 65.7893 12.3274V12.4087Z" fill="#060707"/>
<path d="M69.1374 11.6189C69.1048 11.5242 69.0406 11.4437 68.9556 11.3907C68.8707 11.3378 68.7701 11.3157 68.6707 11.3282C68.3227 11.3282 68.0494 11.6496 68.0454 12.3949H68.0587C68.1155 12.274 68.2075 12.1731 68.3227 12.1055C68.4379 12.0379 68.5708 12.0068 68.7041 12.0162C68.8084 12.0139 68.912 12.0329 69.0087 12.0721C69.1054 12.1114 69.193 12.17 69.2661 12.2444C69.3392 12.3188 69.3964 12.4074 69.434 12.5047C69.4716 12.602 69.4888 12.706 69.4847 12.8102C69.4922 12.9234 69.4755 13.0368 69.4358 13.1431C69.3961 13.2493 69.3342 13.3459 69.2544 13.4264C69.1745 13.5069 69.0784 13.5695 68.9725 13.61C68.8666 13.6506 68.7533 13.6681 68.64 13.6616C68.5016 13.6687 68.3638 13.6383 68.2413 13.5735C68.1188 13.5087 68.0161 13.412 67.944 13.2936C67.8091 13.0429 67.7459 12.7598 67.7614 12.4756C67.7614 11.4989 68.1467 11.0756 68.6874 11.0756C68.8573 11.0565 69.0282 11.1018 69.1664 11.2025C69.3046 11.3031 69.4001 11.452 69.4341 11.6196L69.1374 11.6189ZM68.6474 13.4029C68.7233 13.4075 68.7993 13.3955 68.8701 13.3677C68.9408 13.3399 69.0047 13.297 69.0571 13.2419C69.1096 13.1869 69.1494 13.121 69.1737 13.049C69.198 12.977 69.2064 12.9005 69.1981 12.8249C69.2023 12.7511 69.1911 12.6773 69.165 12.6082C69.1389 12.5391 69.0986 12.4762 69.0467 12.4237C68.9948 12.3712 68.9324 12.3301 68.8636 12.3032C68.7948 12.2763 68.7212 12.2642 68.6474 12.2676C68.5736 12.2642 68.4999 12.2762 68.4309 12.3028C68.362 12.3294 68.2994 12.37 68.247 12.4221C68.1946 12.4742 68.1536 12.5366 68.1266 12.6053C68.0995 12.6741 68.0871 12.7477 68.0901 12.8216C68.085 12.8972 68.0958 12.973 68.1217 13.0442C68.1476 13.1154 68.1881 13.1804 68.2405 13.2351C68.293 13.2898 68.3562 13.333 68.4263 13.3619C68.4963 13.3907 68.5716 13.4047 68.6474 13.4029Z" fill="#060707"/>
<path d="M23.0634 15.9092H0.745422V17.6325H23.0634V15.9092Z" fill="#2B2C2C"/>
<path d="M46.458 15.9092H24.14V17.6325H46.458V15.9092Z" fill="#C3271B"/>
<path d="M69.8505 15.9092H47.5325V17.6325H69.8505V15.9092Z" fill="#F8C117"/>
</g>
</g>
<defs>
<filter id="filter0_d_989_52072" x="-512" y="-5674" width="1928" height="5871" filterUnits="userSpaceOnUse" color-interpolation-filters="sRGB">
<feFlood flood-opacity="0" result="BackgroundImageFix"/>
<feColorMatrix in="SourceAlpha" type="matrix" values="0 0 0 0 0 0 0 0 0 0 0 0 0 0 0 0 0 0 127 0" result="hardAlpha"/>
<feOffset dy="4"/>
<feGaussianBlur stdDeviation="2"/>
<feComposite in2="hardAlpha" operator="out"/>
<feColorMatrix type="matrix" values="0 0 0 0 0 0 0 0 0 0 0 0 0 0 0 0 0 0 0.25 0"/>
<feBlend mode="normal" in2="BackgroundImageFix" result="effect1_dropShadow_989_52072"/>
<feBlend mode="normal" in="SourceGraphic" in2="effect1_dropShadow_989_52072" result="shape"/>
</filter>
<clipPath id="clip0_989_52072">
<rect width="69.1033" height="17.3" fill="white" transform="translate(0.745422 0.333008)"/>
</clipPath>
</defs>
</svg>
