<svg width="20" height="20" viewBox="0 0 20 20" fill="none" xmlns="http://www.w3.org/2000/svg">
<path d="M3.33334 8.14426C3.33334 7.67798 3.33334 7.44484 3.3922 7.22929C3.44434 7.03832 3.53009 6.85816 3.64542 6.69727C3.7756 6.51566 3.95655 6.36865 4.31843 6.07462L8.31843 2.82462C8.91785 2.33759 9.21756 2.09407 9.55076 2.00081C9.84461 1.91855 10.1554 1.91855 10.4493 2.00081C10.7825 2.09407 11.0822 2.33759 11.6816 2.82462L15.6816 6.07462C16.0435 6.36865 16.2244 6.51566 16.3546 6.69727C16.4699 6.85816 16.5557 7.03832 16.6078 7.22929C16.6667 7.44484 16.6667 7.67798 16.6667 8.14425V14C16.6667 14.9334 16.6667 15.4001 16.485 15.7567C16.3252 16.0703 16.0703 16.3252 15.7567 16.485C15.4001 16.6667 14.9334 16.6667 14 16.6667H6.00001C5.06659 16.6667 4.59988 16.6667 4.24336 16.485C3.92976 16.3252 3.67479 16.0703 3.515 15.7567C3.33334 15.4001 3.33334 14.9334 3.33334 14V8.14426Z" stroke="#025CA6" stroke-width="2" stroke-linejoin="round"/>
</svg>
