<svg width="20" height="20" viewBox="0 0 20 20" fill="none" xmlns="http://www.w3.org/2000/svg">
<path d="M5.6417 2.27493C4.1167 2.27493 2.88336 3.83327 2.88336 5.74994C2.88336 7.6666 4.15003 9.22493 5.67503 9.22493C5.90836 9.22493 5.87503 9.2166 6.37503 9.1166V13.7333C6.37503 14.0083 6.37503 14.2333 6.87503 14.2333V17.2166C6.87503 17.4916 7.10003 17.7166 7.37503 17.7166C7.65003 17.7166 7.87503 17.4916 7.87503 17.2166V14.2249H7.85003C8.12503 14.2249 8.35003 14.0083 8.35003 13.7333C8.35003 11.9333 8.37503 5.87493 8.37503 5.7416C8.37503 3.82493 7.17503 2.2666 5.65003 2.2666L5.6417 2.27493ZM4.40003 7.28327C3.9917 7.28327 3.6667 6.60827 3.6667 5.78327C3.6667 4.95827 3.9917 4.28327 4.40003 4.28327C4.80836 4.28327 5.13336 4.95827 5.13336 5.78327C5.13336 6.60827 4.80836 7.28327 4.40003 7.28327Z" fill="#025CA6"/>
<path d="M13.175 2.2832C10.9916 2.2832 9.24164 3.8832 9.24164 5.86654C9.24164 7.04154 9.8583 8.0832 10.8583 8.74154V13.7499C10.8583 14.0249 10.8583 14.2499 11.3583 14.2499V17.2332C11.3583 17.5082 11.5833 17.7332 11.8583 17.7332C12.1333 17.7332 12.3583 17.5082 12.3583 17.2332V14.2415H12.325C12.6 14.2415 12.825 14.0249 12.825 13.7499C12.825 13.3332 12.825 11.0749 12.825 9.4332C12.9416 9.44154 13.0583 9.44987 13.175 9.44987C15.3583 9.44987 17.125 7.84987 17.125 5.86654C17.125 3.8832 15.3583 2.2832 13.175 2.2832ZM12.8916 6.2582H11.175C10.9 6.2582 10.675 6.0332 10.675 5.7582C10.675 5.4832 10.9 5.2582 11.175 5.2582H12.8916C13.1666 5.2582 13.3916 5.4832 13.3916 5.7582C13.3916 6.0332 13.1666 6.2582 12.8916 6.2582ZM16.175 7.14154C15.9416 7.14154 15.7583 6.56654 15.7583 5.8582C15.7583 5.14987 15.95 4.57487 16.175 4.57487C16.4 4.57487 16.5916 5.14987 16.5916 5.8582C16.5916 6.56654 16.4 7.14154 16.175 7.14154Z" fill="#025CA6"/>
</svg>
