<svg width="24" height="25" viewBox="0 0 24 25" fill="none" xmlns="http://www.w3.org/2000/svg">
<path fill-rule="evenodd" clip-rule="evenodd" d="M9 21.3585C10.1046 21.3585 11 20.4631 11 19.3585L13 19.3585C13 20.4631 13.8954 21.3585 15 21.3585H17C18.1046 21.3585 19 20.4631 19 19.3585V17.2478C19.3295 16.9111 19.6258 16.5414 19.8831 16.1438C20.2284 16.2823 20.6053 16.3585 20.999 16.3585C22.6558 16.3585 23.999 15.0153 23.999 13.3585C23.999 12.8137 23.8528 12.3 23.597 11.8578C23.3205 11.3797 22.7087 11.2163 22.2307 11.4929C21.7526 11.7694 21.5892 12.3812 21.8658 12.8592C21.9503 13.0053 21.999 13.1747 21.999 13.3585C21.999 13.9108 21.5512 14.3585 20.999 14.3585C20.9017 14.3585 20.8082 14.3448 20.72 14.3193C20.9021 13.6978 21 13.0399 21 12.3584C21 8.49216 17.8663 5.35849 14 5.35849H10.0085C9.87889 5.19237 9.71111 5.00183 9.4999 4.80553C8.90931 4.25662 7.99073 3.67456 6.66148 3.45201C5.39073 3.23925 4.5 4.31185 4.5 5.35845V7.44201C3.98098 8.0022 3.60965 8.64497 3.32378 9.2935H3C1.89543 9.2935 1 10.1889 1 11.2935V14.3585C1 15.4631 1.89543 16.3585 3 16.3585H3.44811C3.88101 16.99 4.37079 17.4777 5 17.9094V19.3585C5 20.4631 5.89543 21.3585 7 21.3585H9ZM8.25 12.3585C8.94036 12.3585 9.5 11.7988 9.5 11.1085C9.5 10.4181 8.94036 9.85849 8.25 9.85849C7.55964 9.85849 7 10.4181 7 11.1085C7 11.7988 7.55964 12.3585 8.25 12.3585Z" fill="url(#paint0_linear_3258_95731)"/>
<defs>
<linearGradient id="paint0_linear_3258_95731" x1="12.4995" y1="3.4248" x2="12.4995" y2="21.3585" gradientUnits="userSpaceOnUse">
<stop stop-color="#0169FF"/>
<stop offset="1" stop-color="#004795"/>
</linearGradient>
</defs>
</svg>
