<svg width="20" height="20" viewBox="0 0 20 20" fill="none" xmlns="http://www.w3.org/2000/svg">
<path d="M16.025 11.8662L17.9583 7.02454C18.1416 6.57454 17.8083 6.09121 17.325 6.09121H5.22498L4.52498 3.74954C4.36665 3.23288 3.88331 2.86621 3.34165 2.86621H1.84998C1.56665 2.86621 1.33331 3.09954 1.33331 3.38288C1.33331 3.66621 1.56665 3.89954 1.84998 3.89954H3.34165C3.43331 3.89954 3.50831 3.95788 3.53331 4.04954L6.58331 14.3079C6.73331 14.8079 7.19165 15.1662 7.70831 15.1912C7.47498 15.3912 7.31665 15.6995 7.31665 16.0329C7.31665 16.6495 7.81665 17.1412 8.42498 17.1412C9.03331 17.1412 9.53331 16.6412 9.53331 16.0329C9.53331 15.6995 9.38331 15.3912 9.14998 15.1912H13.1083C12.875 15.3912 12.725 15.6995 12.725 16.0329C12.725 16.6495 13.225 17.1412 13.8333 17.1412C14.4416 17.1412 14.9416 16.6412 14.9416 16.0329C14.9416 15.6995 14.7916 15.3912 14.5583 15.1912H15.875C16.1583 15.1912 16.3916 14.9579 16.3916 14.6745C16.3916 14.3912 16.1583 14.1579 15.875 14.1579H7.76665C7.67498 14.1579 7.59998 14.0995 7.56665 14.0079L7.13331 12.5412H15.0166C15.45 12.5412 15.85 12.2745 16.0083 11.8662H16.025ZM9.72498 10.7912C9.72498 10.9662 9.58331 11.1079 9.40831 11.1079C9.23331 11.1079 9.09165 10.9662 9.09165 10.7912V7.96621C9.09165 7.79121 9.23331 7.64954 9.40831 7.64954C9.49165 7.64954 9.57498 7.68288 9.63331 7.74121C9.69165 7.79954 9.72498 7.87454 9.72498 7.96621V10.7912ZM13.2166 10.7912C13.2166 10.9662 13.075 11.1079 12.9 11.1079C12.725 11.1079 12.5833 10.9662 12.5833 10.7912V7.96621C12.5833 7.79121 12.725 7.64954 12.9 7.64954C12.9833 7.64954 13.0666 7.68288 13.125 7.74121C13.1833 7.79954 13.2166 7.87454 13.2166 7.96621V10.7912Z" fill="#025CA6"/>
</svg>
