<svg width="104" height="40" viewBox="0 0 104 40" fill="none" xmlns="http://www.w3.org/2000/svg">
<rect width="104" height="40" fill="#1E1E1E"/>
<path d="M-2035 -17172C-2035 -17173.1 -2034.1 -17174 -2033 -17174H18155C18156.1 -17174 18157 -17173.1 18157 -17172V2663C18157 2664.11 18156.1 2665 18155 2665H-2033C-2034.1 2665 -2035 2664.11 -2035 2663V-17172Z" fill="black"/>
<path d="M-2033 -17174V-17173H18155V-17174V-17175H-2033V-17174ZM18157 -17172H18156V2663H18157H18158V-17172H18157ZM18155 2665V2664H-2033V2665V2666H18155V2665ZM-2035 2663H-2034V-17172H-2035H-2036V2663H-2035ZM-2033 2665V2664C-2033.55 2664 -2034 2663.55 -2034 2663H-2035H-2036C-2036 2664.66 -2034.66 2666 -2033 2666V2665ZM18157 2663H18156C18156 2663.55 18155.6 2664 18155 2664V2665V2666C18156.7 2666 18158 2664.66 18158 2663H18157ZM18155 -17174V-17173C18155.6 -17173 18156 -17172.6 18156 -17172H18157H18158C18158 -17173.7 18156.7 -17175 18155 -17175V-17174ZM-2033 -17174V-17175C-2034.66 -17175 -2036 -17173.7 -2036 -17172H-2035H-2034C-2034 -17172.6 -2033.55 -17173 -2033 -17173V-17174Z" fill="white" fill-opacity="0.1"/>
<path d="M-933 -6362C-933 -6363.1 -932.105 -6364 -931 -6364H17070C17071.1 -6364 17072 -6363.1 17072 -6362V1922C17072 1923.1 17071.1 1924 17070 1924H-931C-932.104 1924 -933 1923.1 -933 1922V-6362Z" fill="#444444"/>
<path d="M-931 -6364V-6363H17070V-6364V-6365H-931V-6364ZM17072 -6362H17071V1922H17072H17073V-6362H17072ZM17070 1924V1923H-931V1924V1925H17070V1924ZM-933 1922H-932V-6362H-933H-934V1922H-933ZM-931 1924V1923C-931.552 1923 -932 1922.55 -932 1922H-933H-934C-934 1923.66 -932.656 1925 -931 1925V1924ZM17072 1922H17071C17071 1922.55 17070.6 1923 17070 1923V1924V1925C17071.7 1925 17073 1923.66 17073 1922H17072ZM17070 -6364V-6363C17070.6 -6363 17071 -6362.55 17071 -6362H17072H17073C17073 -6363.66 17071.7 -6365 17070 -6365V-6364ZM-931 -6364V-6365C-932.657 -6365 -934 -6363.66 -934 -6362H-933H-932C-932 -6362.55 -931.552 -6363 -931 -6363V-6364Z" fill="white" fill-opacity="0.1"/>
<g filter="url(#filter0_d_989_52072)">
<rect x="-360" y="-5663" width="1920" height="5863" rx="8" fill="#F5F5F5"/>
<rect x="-359.5" y="-5662.5" width="1919" height="5862" rx="7.5" stroke="white" stroke-opacity="0.1"/>
<rect width="1920" height="580" transform="translate(-360 -430)" fill="white"/>
<rect x="0.58498" y="0.58498" width="102.163" height="38.83" fill="white" stroke="#E2E2E2" stroke-width="1.16996"/>
<path fill-rule="evenodd" clip-rule="evenodd" d="M68.1929 17.9357C68.8154 17.9377 69.4233 18.124 69.9399 18.4713C70.4565 18.8185 70.8585 19.3111 71.0954 19.8867C71.3322 20.4624 71.3932 21.0953 71.2705 21.7055C71.1479 22.3158 70.8471 22.876 70.4063 23.3154C69.9655 23.7549 69.4043 24.0538 68.7936 24.1745C68.183 24.2952 67.5503 24.2323 66.9754 23.9936C66.4005 23.755 65.9093 23.3513 65.5637 22.8336C65.218 22.316 65.0336 21.7075 65.0336 21.085C65.0338 20.6707 65.1158 20.2604 65.2748 19.8778C65.4338 19.4952 65.6667 19.1477 65.9601 18.8551C66.2536 18.5626 66.6018 18.3308 66.9849 18.1731C67.3681 18.0153 67.7786 17.9346 68.1929 17.9357ZM31.4409 16.5163V31.1163H33.2149V24.8183C33.6116 25.255 34.0983 25.6003 34.6415 25.8305C35.1846 26.0607 35.7713 26.1703 36.3609 26.1517C39.2276 26.1517 40.8109 24.1077 40.8109 21.4183C40.8109 18.7657 39.2023 16.5157 36.3609 16.5157H31.4416L31.4409 16.5163ZM36.1342 24.5783C34.2622 24.5783 33.2149 23.1223 33.2149 21.3957C33.2149 19.6823 34.3029 18.0877 36.1342 18.0877C38.0502 18.0877 39.1342 19.6017 39.1342 21.3957C39.1342 23.2037 38.0676 24.5783 36.1342 24.5783ZM17.6823 16.3877V25.595H19.4562V18.1583H23.2069V25.595H24.9843V18.1583H27.0116C28.5729 18.1583 28.7316 19.4763 28.7316 20.659V25.5923H30.5056V20.3583C30.5056 18.2737 29.8769 16.385 27.4476 16.385L17.6823 16.3877ZM13.0156 17.4117C12.796 16.9276 12.4406 16.5175 11.9926 16.2314C11.5446 15.9453 11.0232 15.7953 10.4916 15.7997C10.1367 15.7954 9.78453 15.8613 9.45526 15.9937C9.12599 16.126 8.82617 16.3222 8.57304 16.5709C8.31991 16.8197 8.11849 17.116 7.98037 17.4429C7.84225 17.7698 7.77016 18.1208 7.76825 18.4757C7.76825 19.7323 8.51824 20.243 9.54224 20.797L11.2756 21.723C11.4685 21.8096 11.6323 21.95 11.7473 22.1274C11.8624 22.3048 11.9238 22.5116 11.9243 22.723C11.9215 22.9014 11.8827 23.0773 11.81 23.2403C11.7374 23.4032 11.6325 23.5497 11.5016 23.671C11.3708 23.7922 11.2167 23.8857 11.0487 23.9458C10.8807 24.0058 10.7023 24.0312 10.5243 24.0203C10.1591 24.0133 9.80449 23.8972 9.50584 23.6871C9.20719 23.4769 8.97819 23.1823 8.84825 22.841L7.32758 23.5303C7.59397 24.154 8.04057 24.6839 8.61011 25.0521C9.17965 25.4204 9.84618 25.6101 10.5243 25.597C10.9338 25.6077 11.3414 25.537 11.7234 25.389C12.1054 25.241 12.4543 25.0187 12.7497 24.7348C13.0451 24.451 13.2813 24.1113 13.4444 23.7355C13.6076 23.3598 13.6946 22.9553 13.7002 22.5457C13.7002 21.093 12.6562 20.4237 11.5716 19.9303C10.4869 19.437 9.4189 19.0857 9.4189 18.2783C9.43277 18.0322 9.54084 17.8009 9.7207 17.6323C9.90056 17.4638 10.1384 17.3709 10.3849 17.373C10.6376 17.3858 10.882 17.4678 11.0912 17.6102C11.3004 17.7526 11.4664 17.9499 11.5709 18.1803L13.0156 17.4117ZM16.4156 16.3877H14.6382V25.595H16.4156V16.3877ZM41.7669 25.595H43.5443V9.33301H41.7669V25.595ZM74.0522 16.3877V25.595H75.8269V18.1583H79.5776V25.595H81.3549V18.1583H83.3856C84.9436 18.1583 85.1023 19.4763 85.1023 20.659V25.5923H86.8796V20.3583C86.8796 18.2737 86.2476 16.385 83.8182 16.385L74.0522 16.3877ZM54.4583 9.33301V25.5957H56.2356V18.1583H58.5229C60.3376 18.1583 60.5536 19.225 60.5536 20.797V25.597H62.3309V20.5797C62.3309 18.3397 61.6642 16.3897 59.0569 16.3897H56.2356V9.33301H54.4583ZM96.6269 21.375V21.0977C96.6269 18.3643 95.2449 16.2017 92.3056 16.2017C89.3256 16.2017 87.8083 18.327 87.8083 21.1583C87.8083 23.875 89.5216 25.997 92.3463 25.997C93.2214 26.0064 94.0825 25.7767 94.8368 25.3329C95.5911 24.8891 96.2101 24.2479 96.6269 23.4783L95.1269 22.6303C94.4542 23.735 93.7269 24.421 92.3663 24.421C91.9825 24.4063 91.6054 24.3154 91.2571 24.1537C90.9087 23.992 90.5959 23.7627 90.3369 23.4791C90.0779 23.1956 89.8778 22.8634 89.7483 22.5018C89.6187 22.1402 89.5623 21.7566 89.5823 21.373L96.6269 21.375ZM53.2896 21.375V21.0977C53.2896 18.3643 51.9109 16.2017 48.9716 16.2017C45.9916 16.2017 44.4709 18.327 44.4709 21.1583C44.4709 23.875 46.1909 25.997 49.0122 25.997C49.8876 26.007 50.7491 25.7777 51.5036 25.3338C52.2581 24.8899 52.8771 24.2483 53.2936 23.4783L51.7969 22.6303C51.1249 23.735 50.3969 24.421 49.0329 24.421C48.6494 24.4059 48.2727 24.3148 47.9247 24.1529C47.5766 23.9911 47.2642 23.7617 47.0055 23.4782C46.7468 23.1946 46.5471 22.8625 46.4177 22.5012C46.2884 22.1398 46.2322 21.7563 46.2522 21.373L53.2896 21.375ZM46.3463 20.037C46.4287 19.3996 46.7409 18.8143 47.2242 18.3907C47.7076 17.9671 48.3289 17.7344 48.9716 17.7363C49.6097 17.7205 50.2296 17.9504 50.7031 18.3786C51.1765 18.8068 51.4674 19.4005 51.5156 20.037H46.3463ZM89.6796 20.037C89.7625 19.3998 90.0748 18.8147 90.558 18.3912C91.0413 17.9677 91.6624 17.7349 92.3049 17.7363C92.9432 17.72 93.5633 17.9498 94.0369 18.378C94.5105 18.8063 94.8012 19.4003 94.8489 20.037H89.6796ZM68.1902 16.1703C67.2188 16.1727 66.2698 16.4629 65.4632 17.0043C64.6566 17.5458 64.0286 18.3141 63.6584 19.2122C63.2882 20.1104 63.1925 21.0981 63.3834 22.0507C63.5743 23.0032 64.0431 23.8778 64.7308 24.5639C65.4185 25.2501 66.2941 25.7171 67.247 25.9059C68.2 26.0948 69.1875 25.9969 70.0848 25.6248C70.9822 25.2527 71.7492 24.6229 72.2888 23.8152C72.8285 23.0074 73.1166 22.0578 73.1169 21.0863C73.1162 20.4401 72.9882 19.8003 72.7403 19.2034C72.4923 18.6066 72.1292 18.0645 71.6717 17.608C71.2142 17.1515 70.6713 16.7896 70.074 16.5429C69.4766 16.2962 68.8365 16.1696 68.1902 16.1703Z" fill="#48494A"/>
<path fill-rule="evenodd" clip-rule="evenodd" d="M14.1935 11.6973C13.8671 11.7004 13.5553 11.8326 13.3261 12.065C13.0969 12.2973 12.9689 12.6109 12.9702 12.9373C12.9776 13.2567 13.1097 13.5605 13.3383 13.7838C13.5668 14.007 13.8737 14.132 14.1932 14.132C14.5127 14.132 14.8195 14.007 15.048 13.7838C15.2766 13.5605 15.4087 13.2567 15.4161 12.9373C15.4181 12.6107 15.2904 12.2967 15.061 12.0642C14.8317 11.8317 14.5194 11.6997 14.1928 11.6973" fill="#F9A400"/>
</g>
<defs>
<filter id="filter0_d_989_52072" x="-364" y="-5663" width="1928" height="5871" filterUnits="userSpaceOnUse" color-interpolation-filters="sRGB">
<feFlood flood-opacity="0" result="BackgroundImageFix"/>
<feColorMatrix in="SourceAlpha" type="matrix" values="0 0 0 0 0 0 0 0 0 0 0 0 0 0 0 0 0 0 127 0" result="hardAlpha"/>
<feOffset dy="4"/>
<feGaussianBlur stdDeviation="2"/>
<feComposite in2="hardAlpha" operator="out"/>
<feColorMatrix type="matrix" values="0 0 0 0 0 0 0 0 0 0 0 0 0 0 0 0 0 0 0.25 0"/>
<feBlend mode="normal" in2="BackgroundImageFix" result="effect1_dropShadow_989_52072"/>
<feBlend mode="normal" in="SourceGraphic" in2="effect1_dropShadow_989_52072" result="shape"/>
</filter>
</defs>
</svg>
