<svg width="20" height="20" viewBox="0 0 20 20" fill="none" xmlns="http://www.w3.org/2000/svg">
<path d="M18.8333 7.19173C18.8333 6.54173 18.4167 6.12506 17.7667 6.12506C17 6.12506 15.3917 6.12506 15.3333 6.12506C15.3333 5.7834 15.3333 4.29173 15.3333 3.8834C15.3333 3.30006 14.85 2.8834 14.325 2.8834C13.2583 2.8834 7.69167 2.8584 6.55834 2.8584C6.42501 2.8584 6.28334 2.86673 6.15001 2.90007C6.11667 2.90007 6.09167 2.91673 6.05834 2.92507C5.63334 3.05007 5.35001 3.4084 5.34167 3.86673C5.34167 4.24173 5.34167 6.5334 5.34167 8.81673C5.48334 9.17506 5.65001 9.51673 5.84168 9.8334C5.84168 7.90006 5.84168 5.9584 5.84168 4.02506C5.84168 3.54173 6.01667 3.36673 6.50834 3.37507C6.97501 3.37507 7.44167 3.37507 7.91667 3.37507C10.05 3.37507 12.1833 3.37507 14.325 3.37507C14.6333 3.37507 14.85 3.59173 14.85 3.90006C14.85 4.7584 14.85 5.61673 14.85 6.46673C14.85 8.65006 14.85 10.8334 14.85 13.0167C14.85 13.2501 14.85 13.4834 14.85 13.7167C14.8583 14.1667 14.9833 14.5751 15.2667 14.9251C15.3417 15.0167 15.4167 15.1001 15.5167 15.2167H14.6667C13.1 15.2167 11.5417 15.2167 9.97501 15.2167C9.93334 15.3084 9.88334 15.4084 9.82501 15.4917C9.77501 15.5751 9.71667 15.6501 9.65001 15.7167C11.2917 15.7167 12.9333 15.7167 14.575 15.7167C15.3333 15.7167 16.0833 15.7167 16.8417 15.7167C17.9583 15.7167 18.8417 14.8167 18.85 13.7001C18.85 11.5251 18.85 9.3584 18.85 7.1834L18.8333 7.19173ZM18.3333 13.7584C18.3333 14.5334 17.7167 15.1667 16.9583 15.2251C16.1917 15.2834 15.4917 14.7501 15.3667 13.9834C15.3 13.5917 15.3417 12.3417 15.3417 12.1167H17.3417C17.3417 12.0584 17.3417 8.1084 17.3417 7.16673C17.3417 6.92507 17.4583 6.7334 17.6667 6.6584C18.0083 6.5334 18.3417 6.77506 18.3417 7.1584C18.3417 8.22506 18.3417 9.2834 18.3417 10.3501C18.3417 11.4917 18.3417 12.6251 18.3417 13.7667L18.3333 13.7584Z" fill="#025CA6"/>
<path d="M7.44165 5.29141L8.14165 6.43307H8.49998V4.69141H8.14165V5.84141L7.44165 4.69141H7.08331V6.43307H7.44165V5.29141Z" fill="#025CA6"/>
<path d="M9.98332 4.98307V4.69141H8.81665V6.43307H9.98332V6.14974H9.17498V5.68307H9.86665V5.39974H9.17498V4.98307H9.98332Z" fill="#025CA6"/>
<path d="M11.1083 5.27474L11.3916 6.43307H11.7583L12.1416 4.69141H11.7833L11.55 5.93307L11.2666 4.69141H10.9583L10.675 5.93307L10.4416 4.69141H10.0833L10.4666 6.43307H10.825L11.1083 5.27474Z" fill="#025CA6"/>
<path d="M13.1667 6.12487C13.1167 6.1582 13.05 6.17487 12.9667 6.17487C12.7333 6.17487 12.625 6.07487 12.625 5.8832H12.2667C12.2667 5.99154 12.2917 6.09154 12.35 6.1832C12.4083 6.26654 12.4917 6.3332 12.6 6.3832C12.7083 6.4332 12.8333 6.4582 12.9667 6.4582C13.1583 6.4582 13.3167 6.41654 13.425 6.3332C13.5417 6.24987 13.6 6.1332 13.6 5.97487C13.6 5.84154 13.55 5.72487 13.4583 5.6332C13.3667 5.54154 13.2167 5.46654 13.0083 5.4082C12.9 5.37487 12.8167 5.34154 12.7583 5.29987C12.7 5.2582 12.675 5.21654 12.675 5.1582C12.675 5.09987 12.7 5.04987 12.75 5.0082C12.8 4.97487 12.8667 4.94987 12.9583 4.94987C13.05 4.94987 13.1167 4.97487 13.1667 5.01654C13.2167 5.0582 13.2417 5.12487 13.2417 5.19987H13.6C13.6 5.09154 13.575 4.99987 13.5167 4.91654C13.4667 4.8332 13.3833 4.77487 13.2917 4.72487C13.1917 4.6832 13.0833 4.6582 12.9583 4.6582C12.8333 4.6582 12.725 4.67487 12.625 4.71654C12.525 4.7582 12.45 4.81654 12.4 4.89154C12.35 4.96654 12.3167 5.04987 12.3167 5.14154C12.3167 5.32487 12.4167 5.46654 12.6167 5.57487C12.6917 5.61654 12.7917 5.64987 12.9083 5.69154C13.0333 5.7332 13.1167 5.76654 13.1667 5.8082C13.2167 5.84154 13.2417 5.89987 13.2417 5.96654C13.2417 6.02487 13.2167 6.07487 13.1667 6.1082V6.12487Z" fill="#025CA6"/>
<path d="M7.24165 7.70046H13.4416C13.5333 7.70046 13.6 7.62546 13.6 7.54212C13.6 7.45879 13.525 7.38379 13.4416 7.38379H7.24165C7.14998 7.38379 7.08331 7.45879 7.08331 7.54212C7.08331 7.62546 7.15831 7.70046 7.24165 7.70046Z" fill="#025CA6"/>
<path d="M7.24165 11.3997H13.4416C13.5333 11.3997 13.6 11.3247 13.6 11.2413C13.6 11.158 13.525 11.083 13.4416 11.083H7.24165C7.14998 11.083 7.08331 11.158 7.08331 11.2413C7.08331 11.3247 7.15831 11.3997 7.24165 11.3997Z" fill="#025CA6"/>
<path d="M13.4416 12.3418H8.44165C8.59165 12.4501 8.74998 12.5501 8.90832 12.6585H13.4416C13.5333 12.6585 13.6 12.5835 13.6 12.5001C13.6 12.4168 13.525 12.3418 13.4416 12.3418Z" fill="#025CA6"/>
<path d="M13.4417 13.5996H9.90002C9.95836 13.6996 10 13.8079 10.0334 13.9163H13.4417C13.5334 13.9163 13.6 13.8413 13.6 13.7579C13.6 13.6746 13.525 13.5996 13.4417 13.5996Z" fill="#025CA6"/>
<path d="M11.1333 8.6416H7.24167C7.15 8.6416 7.075 8.7166 7.08334 8.80827C7.08334 8.8916 7.16667 8.95827 7.25 8.95827H11.1333C11.225 8.95827 11.2917 8.88327 11.2917 8.79994C11.2917 8.7166 11.2167 8.6416 11.1333 8.6416Z" fill="#025CA6"/>
<path d="M11.1333 9.8252H7.24167C7.15 9.8252 7.075 9.9002 7.08334 9.99186C7.08334 10.0752 7.16667 10.1419 7.25 10.1419H11.1333C11.225 10.1419 11.2917 10.0669 11.2917 9.98353C11.2917 9.90019 11.2167 9.8252 11.1333 9.8252Z" fill="#025CA6"/>
<path d="M13.5083 8.6416H12.1916C12.141 8.6416 12.1 8.68264 12.1 8.73327V10.0499C12.1 10.1006 12.141 10.1416 12.1916 10.1416H13.5083C13.5589 10.1416 13.6 10.1006 13.6 10.0499V8.73327C13.6 8.68264 13.5589 8.6416 13.5083 8.6416Z" fill="#025CA6"/>
<path d="M7.24169 12.2414C5.89169 11.2497 5.01669 9.93307 4.52502 8.31641C3.40002 9.95807 2.29169 11.5664 1.16669 13.1997C2.84169 13.0831 4.39169 13.4081 5.80002 14.3331C6.28335 13.6331 6.75835 12.9414 7.24169 12.2414Z" fill="#025CA6"/>
<path d="M9.09166 13.5334C8.99166 13.4417 8.87499 13.3667 8.75833 13.2917C8.37499 13.0251 7.98333 12.7584 7.59166 12.4834C7.11666 13.1751 6.64166 13.8667 6.15833 14.5751C6.49166 14.8084 6.83333 15.0417 7.16666 15.2667C7.34999 15.3917 7.52499 15.5417 7.73333 15.6334C8.29166 15.8834 8.97499 15.6834 9.30833 15.1751C9.65833 14.6417 9.56666 13.9584 9.09999 13.5334H9.09166Z" fill="#025CA6"/>
<path d="M6.06664 15.0748C5.54164 15.5165 5.01664 15.9581 4.49164 16.4081C4.30831 16.5665 4.29998 16.8248 4.45831 17.0081C4.60831 17.1831 4.85831 17.1915 5.04998 17.0331C5.35831 16.7748 5.65831 16.5165 5.95831 16.2581C6.21664 16.0331 6.48331 15.8081 6.74164 15.5915C6.75831 15.5748 6.78331 15.5581 6.80831 15.5248C6.58331 15.3665 6.36664 15.2165 6.14998 15.0665C6.11664 15.0415 6.09164 15.0581 6.06664 15.0748Z" fill="#025CA6"/>
<path d="M1.95831 11.2833C2.30831 10.775 2.65831 10.2667 3.01664 9.75C2.53331 9.48334 1.97498 9.60834 1.71664 10.0417C1.46664 10.4583 1.58331 11.05 1.96664 11.2833H1.95831Z" fill="#025CA6"/>
</svg>
