<svg width="24" height="25" viewBox="0 0 24 25" fill="none" xmlns="http://www.w3.org/2000/svg">
<path fill-rule="evenodd" clip-rule="evenodd" d="M10.9646 17.3584C10.7219 19.0545 9.26324 20.3584 7.5 20.3584C5.70619 20.3584 4.22757 19.0089 4.02393 17.2698C2.85922 16.9644 2 15.9046 2 14.6441V10.9639C2 10.3717 2.17531 9.79265 2.50385 9.29985L3.57422 7.6943C4.13061 6.8597 5.06731 6.3584 6.07037 6.3584H8.17071C8.58254 5.19321 9.69378 4.3584 11 4.3584H19C20.6569 4.3584 22 5.70154 22 7.3584V15.3584C22 16.463 21.1046 17.3584 20 17.3584C19.9882 17.3584 19.9764 17.3583 19.9646 17.3581C19.7221 19.0544 18.2633 20.3584 16.5 20.3584C14.7368 20.3584 13.2781 19.0545 13.0354 17.3584H10.9646ZM8 8.3584H6.07037C5.73601 8.3584 5.42378 8.5255 5.23832 8.8037L4.16795 10.4092C4.05844 10.5735 4 10.7665 4 10.9639V14.6441C4 14.917 4.15308 15.1542 4.37807 15.2745C4.95611 14.1374 6.13708 13.3584 7.5 13.3584C7.66976 13.3584 7.8367 13.3705 8 13.3938V8.3584ZM16.5 15.3584C15.6716 15.3584 15 16.03 15 16.8584C15 17.6868 15.6716 18.3584 16.5 18.3584C17.3284 18.3584 18 17.6868 18 16.8584C18 16.03 17.3284 15.3584 16.5 15.3584ZM6 16.8584C6 16.03 6.67157 15.3584 7.5 15.3584C8.32843 15.3584 9 16.03 9 16.8584C9 17.6868 8.32843 18.3584 7.5 18.3584C6.67157 18.3584 6 17.6868 6 16.8584Z" fill="url(#paint0_linear_3258_95752)"/>
<defs>
<linearGradient id="paint0_linear_3258_95752" x1="12" y1="4.3584" x2="12" y2="20.3584" gradientUnits="userSpaceOnUse">
<stop stop-color="#0169FF"/>
<stop offset="1" stop-color="#004795"/>
</linearGradient>
</defs>
</svg>
