<svg width="16" height="18" viewBox="0 0 16 18" fill="none" xmlns="http://www.w3.org/2000/svg">
<path d="M1.3335 8.14264C1.3335 7.67636 1.3335 7.44322 1.39235 7.22767C1.44449 7.0367 1.53024 6.85654 1.64558 6.69565C1.77576 6.51405 1.9567 6.36703 2.31858 6.073L6.31858 2.823C6.918 2.33597 7.21771 2.09246 7.55091 1.99919C7.84476 1.91694 8.15556 1.91694 8.44941 1.99919C8.78261 2.09246 9.08232 2.33597 9.68174 2.823L13.6817 6.073C14.0436 6.36703 14.2246 6.51405 14.3547 6.69565C14.4701 6.85654 14.5558 7.0367 14.608 7.22767C14.6668 7.44322 14.6668 7.67636 14.6668 8.14264V13.9984C14.6668 14.9318 14.6668 15.3985 14.4852 15.755C14.3254 16.0686 14.0704 16.3236 13.7568 16.4834C13.4003 16.6651 12.9336 16.6651 12.0002 16.6651H4.00016C3.06674 16.6651 2.60003 16.6651 2.24351 16.4834C1.92991 16.3236 1.67494 16.0686 1.51515 15.755C1.3335 15.3985 1.3335 14.9318 1.3335 13.9984V8.14264Z" stroke="#025CA6" stroke-width="2" stroke-linejoin="round"/>
</svg>
