<svg width="41" height="40" viewBox="0 0 41 40" fill="none" xmlns="http://www.w3.org/2000/svg">
<mask id="mask0_3258_95879" style="mask-type:luminance" maskUnits="userSpaceOnUse" x="0" y="0" width="41" height="40">
<path d="M20.3373 40C31.383 40 40.3373 31.0457 40.3373 20C40.3373 8.9543 31.383 0 20.3373 0C9.29159 0 0.33728 8.9543 0.33728 20C0.33728 31.0457 9.29159 40 20.3373 40Z" fill="white"/>
</mask>
<g mask="url(#mask0_3258_95879)">
<path d="M51.1824 -6.02637H-0.0471268V49.9115H51.1824V-6.02637Z" fill="#0068FF"/>
<path d="M1.01821 -0.999023H40.3384V36.7685H1.01821C1.01821 24.1793 1.01821 11.5901 1.01821 -0.999023ZM10.2251 36.7517C10.2251 36.7517 10.2754 36.7853 10.3006 36.7853C10.3258 36.8189 10.3678 36.8272 10.4013 36.8356C11.2826 37.1965 15.1265 38.2037 16.0581 38.4051C17.6107 38.7324 16.2511 38.1281 17.829 38.1533C19.5327 38.1869 21.2448 38.1701 22.9486 38.1617C24.4509 38.1617 25.9448 38.061 27.4303 37.8176C28.6976 37.6078 29.9397 37.2805 31.1231 36.7769C33.1878 35.904 34.9838 34.6619 36.4441 32.9498C36.7379 32.6057 37.0316 32.2532 37.2666 31.8671C37.3086 31.8419 37.317 31.8 37.3338 31.758C37.2918 31.7748 37.2499 31.7832 37.2247 31.8251C37.2079 31.8251 37.1911 31.8419 37.1827 31.8503C37.1659 31.8503 37.1575 31.8503 37.1575 31.8671C37.124 31.8839 37.0904 31.8923 37.0568 31.9175C35.8818 32.6141 34.6397 33.1596 33.3472 33.596C30.8546 34.4353 28.2948 34.8465 25.6762 34.9305C24.3921 34.9724 23.108 34.9305 21.8323 34.7962C20.7664 34.6871 19.7089 34.5192 18.6598 34.2842C16.6959 33.8478 14.8076 33.1932 13.0283 32.228C12.936 32.1776 12.8604 32.1693 12.7597 32.2112C12.2142 32.4714 11.6435 32.6728 11.056 32.8407C10.0405 33.1344 8.99975 33.3023 7.94226 33.2939C7.66529 33.2939 7.37994 33.2939 7.10298 33.2435C6.99387 33.2267 6.90156 33.2016 6.85959 33.0841C6.90995 32.9834 6.98548 32.9078 7.06101 32.8323C7.85833 31.9762 8.40386 30.9943 8.56333 29.8277C8.64725 29.1982 8.56333 28.5939 8.16887 28.0568C7.37994 26.9909 6.74209 25.8327 6.22173 24.6074C5.32371 22.5092 4.80336 20.3186 4.55997 18.061C4.44247 16.928 4.39211 15.7949 4.42568 14.6535C4.45925 13.4366 4.57676 12.228 4.77819 11.0278C5.07193 9.27374 5.55032 7.5784 6.25531 5.9502C7.0778 4.05343 8.16886 2.32452 9.66278 0.872567C9.68796 0.847389 9.71314 0.830603 9.72154 0.780246C9.68796 0.788639 9.67118 0.797032 9.65439 0.805425C8.52137 1.34256 7.46388 1.9972 6.5071 2.80291C4.54319 4.46468 3.17516 6.5377 2.29392 8.94642C1.71482 10.5327 1.43785 12.1944 1.29517 13.873C1.19446 15.1067 1.16928 16.3489 1.17768 17.591C1.17768 18.4471 1.17768 19.3031 1.17768 20.1592C1.17768 20.9901 1.19446 21.8209 1.24482 22.6518C1.31196 23.8184 1.43785 24.985 1.67285 26.1264C2.05052 27.9896 2.73874 29.7353 3.76265 31.3468C5.18104 33.5876 7.11138 35.2494 9.49493 36.4076C9.73832 36.5251 9.97332 36.651 10.2335 36.7265L10.2251 36.7517ZM11.677 20.327C11.7274 20.2599 11.7694 20.2011 11.8113 20.1508C12.0967 19.7899 12.382 19.429 12.6758 19.0681C14.0186 17.3896 15.3531 15.7026 16.6959 14.0324C17.04 13.6128 17.2163 13.1512 17.2079 12.6057C17.2079 12.3539 17.2331 12.3791 16.9813 12.3791C14.9502 12.3791 12.9192 12.3791 10.8797 12.3791C10.4937 12.3791 10.116 12.3791 9.72992 12.3791C9.57046 12.3791 9.57046 12.3791 9.57046 12.5301C9.57046 12.9498 9.57046 13.3778 9.57046 13.7975C9.57046 14.0325 9.54528 14.0157 9.78028 14.0157C11.3917 14.0157 13.0031 14.0157 14.6145 14.0157C14.6817 14.0157 14.7488 14.0073 14.8411 14.0324C14.7992 14.0912 14.7656 14.1332 14.732 14.1751C14.1781 14.8549 13.6326 15.5348 13.0786 16.223C11.954 17.6246 10.821 19.0178 9.69635 20.4194C9.54527 20.604 9.43617 20.8138 9.38582 21.0488C9.34385 21.2922 9.35225 21.5356 9.35225 21.779C9.35225 21.8545 9.37743 21.8881 9.45296 21.8797C9.48653 21.8797 9.5201 21.8797 9.54528 21.8797C11.8449 21.8797 14.1445 21.8797 16.4525 21.8797C16.5449 21.8797 16.6288 21.8797 16.7211 21.8545C16.9813 21.7958 17.1995 21.5524 17.2079 21.2838C17.2163 21.0069 17.2079 20.7215 17.2079 20.4361C17.2079 20.3606 17.1743 20.3354 17.1072 20.3354C17.0568 20.3354 17.0065 20.3354 16.9561 20.3354C15.2776 20.3354 13.5906 20.3354 11.9121 20.3354C11.8449 20.3354 11.7694 20.3438 11.677 20.3102V20.327ZM23.536 15.2074C22.9989 14.8382 22.445 14.6116 21.8323 14.5276C21.2112 14.4437 20.607 14.5108 20.0195 14.7291C19.4404 14.9473 18.9452 15.2914 18.534 15.753C17.4261 17.0035 17.2918 18.8415 18.1982 20.2347C18.6598 20.9397 19.2809 21.4433 20.0698 21.7202C21.2952 22.1399 22.445 21.9552 23.5109 21.2419C23.6032 21.6951 23.8382 21.8797 24.2746 21.8881C24.4677 21.8881 24.6607 21.8881 24.8537 21.8881C25.0887 21.8881 25.0551 21.8881 25.0635 21.6783V21.6615C25.0635 19.4206 25.0635 17.1714 25.0635 14.9305C25.0635 14.8885 25.0635 14.8549 25.0635 14.813C25.0635 14.7291 25.0384 14.6955 24.9544 14.7039C24.5096 14.7039 24.0732 14.7039 23.6284 14.7039C23.5528 14.7039 23.5277 14.7291 23.5277 14.8046C23.5277 14.9221 23.5277 15.048 23.5277 15.2074H23.536ZM32.8688 14.4353C30.821 14.4269 29.1172 16.1055 29.1089 18.1449C29.0921 20.2263 30.7622 21.9301 32.8269 21.9384C34.9167 21.9468 36.612 20.2767 36.6204 18.2037C36.6204 16.139 34.9418 14.4437 32.8772 14.4353H32.8688ZM28.0178 17.1462C28.0178 17.0455 28.0178 16.9447 28.0178 16.8356C28.0178 15.4089 28.0178 13.9905 28.0178 12.5637C28.0178 12.3791 28.0178 12.3791 27.8499 12.3791C27.4135 12.3791 26.9771 12.3791 26.5491 12.3791C26.5155 12.3791 26.4819 12.3791 26.4567 12.3791C26.4148 12.3791 26.3896 12.4043 26.3896 12.4462C26.3896 12.4882 26.3896 12.5217 26.3896 12.5637C26.3896 15.4592 26.3896 18.3547 26.3896 21.2419C26.3896 21.6615 26.5994 21.8713 27.0274 21.8797C27.2876 21.8797 27.5478 21.8797 27.8164 21.8797C28.0682 21.8797 28.0346 21.8797 28.0346 21.6615C28.0346 20.1508 28.0346 18.6485 28.0346 17.1378L28.0178 17.1462Z" fill="white"/>
<path d="M10.2179 36.752C9.95768 36.6764 9.72268 36.5505 9.47928 36.433C7.10413 35.2748 5.17379 33.6131 3.74701 31.3722C2.72309 29.7608 2.03489 28.0235 1.65722 26.1519C1.42222 25.0021 1.29632 23.8439 1.22918 22.6773C1.18721 21.8464 1.16203 21.0155 1.16203 20.1846C1.16203 19.3285 1.16203 18.4725 1.16203 17.6164C1.16203 16.3743 1.17882 15.1321 1.27953 13.8984C1.42221 12.2198 1.69917 10.5665 2.27827 8.97184C3.15952 6.56311 4.52754 4.4901 6.49146 2.82832C7.44823 2.01422 8.50572 1.36798 9.63875 0.830842C9.65553 0.830842 9.67232 0.82245 9.70589 0.805664C9.70589 0.856021 9.67232 0.872806 9.64714 0.897984C8.16161 2.34994 7.06216 4.07885 6.23967 5.97562C5.53468 7.60382 5.05629 9.30755 4.76254 11.0533C4.56112 12.2534 4.44362 13.462 4.41005 14.6789C4.37648 15.8204 4.41843 16.9534 4.54432 18.0864C4.78771 20.3441 5.30808 22.543 6.2061 24.6328C6.72646 25.8497 7.3643 27.0079 8.15322 28.0822C8.54768 28.611 8.64001 29.2152 8.54769 29.8531C8.38822 31.0197 7.8427 32.0016 7.04538 32.8577C6.96985 32.9332 6.89431 33.0088 6.84395 33.1095C6.76002 33.185 6.83557 33.2354 6.87753 33.2773C7.2636 33.6718 7.64966 34.0747 8.03572 34.4691C8.73233 35.1741 9.40374 35.9127 10.1171 36.6009C10.1591 36.6428 10.2178 36.6848 10.2095 36.7603L10.2179 36.752Z" fill="#0169FF"/>
<path d="M11.6764 20.3274C11.7771 20.361 11.8443 20.3526 11.9114 20.3526C13.59 20.3526 15.2769 20.3526 16.9555 20.3526C17.0059 20.3526 17.0562 20.3526 17.1066 20.3526C17.1737 20.3526 17.2073 20.3777 17.2073 20.4533C17.2073 20.7386 17.2073 21.0156 17.2073 21.301C17.1989 21.5695 16.9807 21.8129 16.7205 21.8717C16.6366 21.8884 16.5442 21.8968 16.4519 21.8968C14.1523 21.8968 11.8527 21.8968 9.54467 21.8968C9.5111 21.8968 9.47753 21.8968 9.45235 21.8968C9.37681 21.8968 9.35164 21.8717 9.35164 21.7961C9.35164 21.5527 9.34324 21.3093 9.3852 21.0659C9.42717 20.831 9.54466 20.6211 9.69573 20.4365C10.8204 19.0349 11.9534 17.6417 13.078 16.2401C13.632 15.5603 14.1775 14.8805 14.7314 14.1923C14.765 14.1503 14.7985 14.1083 14.8405 14.0496C14.7482 14.016 14.681 14.0328 14.6139 14.0328C13.0025 14.0328 11.3911 14.0328 9.77967 14.0328C9.54467 14.0328 9.56985 14.0496 9.56985 13.8146C9.56985 13.3949 9.56985 12.9669 9.56985 12.5473C9.56985 12.3962 9.56985 12.3962 9.72931 12.3962C10.1154 12.3962 10.4931 12.3962 10.8791 12.3962C12.9102 12.3962 14.9412 12.3962 16.9807 12.3962C17.2325 12.3962 17.2073 12.371 17.2073 12.6228C17.2157 13.1599 17.0394 13.6216 16.6953 14.0496C15.3441 15.7197 14.0096 17.4067 12.6752 19.0853C12.3898 19.4461 12.1045 19.807 11.8107 20.1679C11.7688 20.2183 11.7268 20.277 11.6764 20.3442V20.3274Z" fill="#0169FF"/>
<path d="M23.5363 15.207C23.5363 15.0475 23.5363 14.9216 23.5363 14.8041C23.5363 14.7286 23.5615 14.7034 23.637 14.7034C24.0818 14.7034 24.5182 14.7034 24.9631 14.7034C25.047 14.7034 25.0806 14.737 25.0722 14.8125C25.0722 14.8545 25.0722 14.888 25.0722 14.93C25.0722 17.1709 25.0722 19.4202 25.0722 21.661V21.6778C25.0722 21.8876 25.0974 21.8876 24.8624 21.8876C24.6693 21.8876 24.4763 21.8876 24.2833 21.8876C23.8384 21.8876 23.6118 21.6946 23.5195 21.2414C22.4452 21.9632 21.2954 22.1478 20.0785 21.7198C19.2812 21.4428 18.6601 20.9392 18.2069 20.2343C17.3005 18.841 17.4347 17.003 18.5426 15.7525C18.9538 15.2909 19.449 14.9468 20.0281 14.7286C20.6156 14.5104 21.2199 14.4432 21.841 14.5272C22.4536 14.6111 23.0075 14.8377 23.5447 15.207H23.5363ZM23.5111 18.2116C23.5111 16.9946 22.5208 16.0295 21.3038 16.0295C20.112 16.0295 19.1217 17.0366 19.1301 18.2284C19.1385 19.4369 20.1288 20.4105 21.3458 20.4021C22.5543 20.4021 23.5195 19.4202 23.5111 18.2032V18.2116Z" fill="#0169FF"/>
<path d="M32.869 14.4356C34.942 14.444 36.6206 16.1393 36.6122 18.2039C36.6122 20.277 34.9084 21.9555 32.8186 21.9387C30.754 21.9303 29.0922 20.2266 29.1006 18.1452C29.1174 16.1057 30.8128 14.4272 32.8606 14.4356H32.869ZM30.6533 18.2039C30.6533 19.4293 31.6352 20.4028 32.8606 20.4028C34.0859 20.4028 35.0595 19.4209 35.0511 18.1872C35.0511 16.9702 34.0692 15.9966 32.8522 15.9966C31.6353 15.9966 30.6449 16.987 30.6449 18.2039H30.6533Z" fill="#0169FF"/>
<path d="M28.0201 17.1464C28.0201 18.6571 28.0201 20.1594 28.0201 21.6701C28.0201 21.8967 28.0537 21.8883 27.8019 21.8883C27.5417 21.8883 27.2815 21.8883 27.013 21.8883C26.5849 21.8883 26.3751 21.6701 26.3751 21.2505C26.3751 18.355 26.3751 15.4595 26.3751 12.5723C26.3751 12.5304 26.3751 12.4968 26.3751 12.4548C26.3751 12.4045 26.4003 12.3877 26.4423 12.3877C26.4758 12.3877 26.5094 12.3877 26.5346 12.3877C26.971 12.3877 27.4074 12.3877 27.8354 12.3877C28.0033 12.3877 28.0033 12.3877 28.0033 12.5723C28.0033 13.9991 28.0033 15.4175 28.0033 16.8443C28.0033 16.945 28.0033 17.0457 28.0033 17.1548L28.0201 17.1464Z" fill="#0169FF"/>
<path d="M37.2663 31.8673C37.2663 31.8673 37.2411 31.8421 37.2327 31.8337C37.2579 31.7918 37.2998 31.7834 37.3418 31.7666C37.325 31.8086 37.3166 31.8505 37.2747 31.8757L37.2663 31.8673Z" fill="#0169FF"/>
<path d="M10.2245 36.752C10.2245 36.752 10.2927 36.752 10.3012 36.786C10.2671 36.786 10.2416 36.786 10.2245 36.752Z" fill="#0169FF"/>
<path d="M37.1832 31.8584C37.1832 31.8584 37.1665 31.8751 37.1581 31.8751C37.1581 31.8584 37.1665 31.8584 37.1832 31.8584Z" fill="#0169FF"/>
<path d="M23.5119 18.2118C23.5119 19.4204 22.5551 20.4023 21.3465 20.4107C20.1296 20.4107 19.1392 19.4456 19.1308 18.237C19.1224 17.0452 20.1044 16.0465 21.3046 16.0381C22.5215 16.0381 23.5035 17.0033 23.5119 18.2202V18.2118Z" fill="white"/>
<path d="M30.6525 18.2034C30.6525 16.9864 31.6344 15.9961 32.8598 15.9961C34.0767 15.9961 35.0503 16.9697 35.0587 18.1866C35.0587 19.412 34.0935 20.4023 32.8681 20.4023C31.6428 20.4023 30.6609 19.4287 30.6609 18.2034H30.6525Z" fill="white"/>
<path d="M12.97 38.3212H-4.31915V10.9775H2.63008L4.92971 32.27L12.97 38.3212Z" fill="#0169FF"/>
<path d="M38.9382 39.8652H11.7959V42.0725H38.9382V39.8652Z" fill="#0169FF"/>
<path d="M10.7623 34.7379C10.7623 34.7379 12.6927 34.654 14.5726 34.847C16.4526 35.04 17.7703 35.0736 18.9956 35.1575C20.221 35.2414 20.5063 35.3002 23.1417 35.2414C25.777 35.1827 30.6196 35.0988 30.7371 35.0988C30.8546 35.0988 31.5177 35.4093 31.7694 35.5436C32.0212 35.6779 33.4816 34.3098 32.466 36.3241C31.4505 38.3384 34.9839 38.7328 28.8236 39.5469C22.6633 40.361 21.1778 40.6128 18.0137 40.361C14.8496 40.1093 11.7694 40.1932 11.2659 39.6309C10.7623 39.0686 10.3427 37.2221 10.4853 36.6598C10.628 36.0975 10.7623 34.7295 10.7623 34.7295V34.7379Z" fill="#0068FF"/>
</g>
</svg>
