<svg width="144" height="21" viewBox="0 0 144 21" fill="none" xmlns="http://www.w3.org/2000/svg">
<g clip-path="url(#clip0_3232_94500)">
<path d="M11.4823 2.2334L134.313 2.2334C139.106 2.2334 143 6.1334 143 10.9334C143 15.7334 139.106 19.6334 134.313 19.6334H11.4823V2.2334Z" fill="url(#paint0_linear_3232_94500)"/>
<path d="M17.648 0.924805H6.10743L0.333008 10.9331L6.10743 20.9415H17.648L23.4141 10.9331L17.648 0.924805Z" fill="#C10000"/>
<path d="M11.3994 17.3505H7.18927V10.7338H11.3994V17.3505ZM12.3563 10.7338V17.3505H16.5665V10.7338H12.3563ZM11.3578 8.34212H6.64844V10.2588H11.3578V8.34212ZM12.3979 8.34212V10.2588H17.1073V8.34212H12.3979ZM12.1899 7.65879C12.2481 7.73379 12.3313 7.78379 12.4229 7.80046C12.4395 7.80046 12.4478 7.80046 12.4645 7.80046H12.4894H12.5393H12.6226H12.789C13.0053 7.80046 13.2299 7.79212 13.4546 7.77546C13.8956 7.74212 14.3366 7.68379 14.7859 7.56712C15.0105 7.50879 15.2269 7.43379 15.4432 7.34212C15.6595 7.25046 15.8759 7.13379 16.0839 6.97546C16.192 6.89212 16.2919 6.80046 16.3834 6.68379C16.4749 6.56712 16.5581 6.42546 16.6081 6.25879C16.658 6.09212 16.6663 5.89212 16.633 5.72546C16.5914 5.55046 16.5165 5.40046 16.4333 5.27546C16.3418 5.15046 16.2503 5.05046 16.1421 4.95879C16.0506 4.87546 15.9258 4.78379 15.801 4.71712C15.5514 4.57546 15.2518 4.50879 14.9689 4.50879C14.686 4.50879 14.4281 4.58379 14.1868 4.68379C13.9538 4.78379 13.7458 4.91712 13.5544 5.06712C13.18 5.36712 12.8722 5.71712 12.6309 6.10046C12.5061 6.29212 12.3979 6.49212 12.3064 6.70879C12.2148 6.91712 12.1483 7.14212 12.1233 7.38379C12.1067 7.48379 12.14 7.58379 12.1982 7.65879H12.1899ZM12.4395 7.44212C12.531 7.05879 12.764 6.70879 13.0303 6.40879C13.3048 6.10879 13.621 5.85046 13.9538 5.66712C14.2867 5.48379 14.6444 5.36712 14.944 5.39212C15.0937 5.40046 15.2269 5.44212 15.3434 5.51712C15.4099 5.55879 15.4598 5.59212 15.5264 5.65046C15.5763 5.70046 15.6346 5.75879 15.6679 5.80879C15.7011 5.85879 15.7261 5.90879 15.7344 5.94212C15.7427 5.97546 15.7427 6.00046 15.7344 6.04212C15.7261 6.12546 15.6429 6.24212 15.5181 6.35879C15.2768 6.59212 14.9107 6.79212 14.5446 6.95879C14.1702 7.12546 13.7708 7.25046 13.3631 7.34212C13.1551 7.39212 12.9554 7.42546 12.739 7.45046L12.5809 7.46712L12.4561 7.48379C12.4561 7.48379 12.4229 7.48379 12.4145 7.46712C12.4145 7.45879 12.4145 7.45046 12.4145 7.44212H12.4395ZM11.8404 7.38379C11.8155 7.14212 11.7406 6.91712 11.6574 6.70879C11.5658 6.50046 11.4577 6.29212 11.3329 6.10046C11.0833 5.71712 10.7837 5.35879 10.4093 5.06712C10.2179 4.91712 10.0099 4.78379 9.77694 4.68379C9.54397 4.58379 9.27771 4.50879 9.00314 4.50879C8.72024 4.50879 8.42902 4.57546 8.17109 4.71712C8.04628 4.78379 7.92147 4.87546 7.82995 4.95879C7.72178 5.05046 7.63026 5.15046 7.53873 5.27546C7.45553 5.40046 7.37232 5.55046 7.33904 5.72546C7.29744 5.90046 7.30576 6.09212 7.364 6.25879C7.41392 6.42546 7.49713 6.56712 7.58865 6.68379C7.68018 6.80046 7.78002 6.89212 7.88819 6.97546C8.0962 7.13379 8.31254 7.25046 8.52887 7.34212C8.7452 7.43379 8.96986 7.50879 9.18619 7.56712C9.62717 7.68379 10.0682 7.74212 10.5175 7.77546C10.7421 7.79212 10.9585 7.80046 11.1831 7.80046H11.3495H11.4327H11.4826H11.5076C11.5242 7.80046 11.5326 7.80046 11.5492 7.80046C11.6407 7.78379 11.7239 7.73379 11.7822 7.65879C11.8404 7.58379 11.8737 7.48379 11.8571 7.38379H11.8404ZM11.5242 7.44212C11.5242 7.44212 11.5242 7.45879 11.5242 7.46712C11.5159 7.47546 11.4993 7.48379 11.4826 7.48379L11.3578 7.46712L11.1997 7.45046C10.9917 7.42546 10.7837 7.39212 10.5757 7.34212C10.168 7.25046 9.76862 7.12546 9.3942 6.95879C9.0281 6.79212 8.67032 6.59212 8.4207 6.35879C8.30422 6.24212 8.22101 6.11712 8.20437 6.04212C8.20437 6.00046 8.20437 5.97546 8.20437 5.94212C8.21269 5.90879 8.23765 5.85879 8.27093 5.80879C8.30422 5.75879 8.36246 5.70046 8.41238 5.65046C8.47895 5.59212 8.52887 5.55046 8.59543 5.51712C8.72024 5.44212 8.84505 5.40046 8.99482 5.39212C9.29435 5.36712 9.65214 5.48379 9.98496 5.66712C10.3178 5.85046 10.6423 6.10879 10.9085 6.40879C11.1748 6.70879 11.4078 7.05879 11.4993 7.44212H11.5242Z" fill="white"/>
<path d="M37.398 11.0559C37.398 12.0198 37.0988 12.8618 36.5116 13.593L37.2872 14.4129L36.0131 15.5429L35.1821 14.6677C34.606 14.9447 33.9967 15.0887 33.3652 15.0887C32.2462 15.0887 31.2934 14.7009 30.5068 13.9254C29.7201 13.1499 29.3324 12.1971 29.3324 11.0559C29.3324 9.91476 29.7201 8.96195 30.5068 8.18642C31.2934 7.41088 32.2462 7.02311 33.3652 7.02311C34.4842 7.02311 35.437 7.41088 36.2236 8.18642C37.0102 8.96195 37.398 9.91476 37.398 11.0559ZM33.3652 13.3604C33.5314 13.3604 33.7086 13.3382 33.908 13.305L32.7891 12.1195L34.0632 10.9894L35.304 12.3078C35.5145 11.9201 35.6253 11.5101 35.6253 11.0559C35.6253 10.3801 35.4037 9.82612 34.9716 9.39404C34.5396 8.96195 34.0078 8.75145 33.3652 8.75145C32.7226 8.75145 32.1797 8.96195 31.7476 9.39404C31.3155 9.82612 31.105 10.3801 31.105 11.0559C31.105 11.7317 31.3155 12.2857 31.7476 12.7178C32.1797 13.1499 32.7226 13.3604 33.3652 13.3604ZM38.3947 12.4297V7.17822H40.1674V12.2746C40.1674 12.9947 40.5773 13.3604 41.3861 13.3604C42.1949 13.3604 42.6048 12.9947 42.6048 12.2746V7.17822H44.3775V12.4297C44.3775 13.2385 44.1005 13.8922 43.5354 14.3686C42.9704 14.845 42.2613 15.0887 41.3861 15.0887C40.5108 15.0887 39.8018 14.845 39.2368 14.3686C38.6717 13.8922 38.3947 13.2385 38.3947 12.4297ZM48.8688 4.96239L49.7552 6.51347H48.1598L46.8746 4.96239H48.8688ZM52.5249 14.9336H50.5861L50.1983 13.7149H47.3178L46.93 14.9336H44.9911L47.628 7.17822H49.8881L52.5249 14.9336ZM48.758 9.20569L47.8495 12.053H49.6665L48.758 9.20569ZM55.402 7.17822H61.1632V8.8844H59.1689V14.9336H57.3963V8.8844H55.402V7.17822ZM68.2564 14.9336H66.3176L65.9298 13.7149H63.0492L62.6615 14.9336H60.7226L63.3594 7.17822H65.6196L68.2564 14.9336ZM64.4895 9.20569L63.581 12.053H65.398L64.4895 9.20569ZM65.1653 17.3267C64.7776 17.6923 64.1793 17.6923 63.7804 17.3267C63.4038 16.9389 63.4038 16.3517 63.7804 15.975C64.1793 15.5983 64.7776 15.5983 65.1653 15.975C65.5531 16.3517 65.5531 16.9389 65.1653 17.3267ZM62.6836 5.16182H64.0463C64.0463 5.48311 64.1904 5.63822 64.4895 5.63822C64.7886 5.63822 64.9327 5.48311 64.9327 5.16182H66.2954C66.2954 6.15894 65.6417 6.71289 64.4895 6.71289C63.3373 6.71289 62.6836 6.15894 62.6836 5.16182ZM73.2385 11.3883V7.17822H75.0112V14.9336H73.6817L70.6903 10.7235V14.9336H68.9177V7.17822H70.2472L73.2385 11.3883ZM80.1289 10.6127H84.0176V11.2775C84.0176 12.4408 83.652 13.3604 82.9319 14.0583C82.2118 14.7452 81.3033 15.0887 80.1954 15.0887C78.9877 15.0887 77.9906 14.7009 77.1929 13.9254C76.4063 13.1499 76.0075 12.1971 76.0075 11.067C76.0075 9.93691 76.3952 8.98411 77.1818 8.19749C77.9685 7.41088 78.9323 7.02311 80.0735 7.02311C81.5248 7.02311 82.7989 7.73217 83.4637 8.79577L81.9569 9.65994C81.6135 9.12814 80.9044 8.75145 80.0624 8.75145C79.4087 8.75145 78.8548 8.97303 78.4227 9.40512C77.9906 9.8372 77.7801 10.4022 77.7801 11.0781C77.7801 11.7539 78.0017 12.2968 78.4449 12.7289C78.888 13.1499 79.4752 13.3604 80.2175 13.3604C81.2479 13.3604 81.9015 12.9615 82.2007 12.1638H80.1289V10.6127ZM91.5759 10.6127H95.4646V11.2775C95.4646 12.4408 95.099 13.3604 94.3789 14.0583C93.6587 14.7452 92.7502 15.0887 91.6423 15.0887C90.4347 15.0887 89.4376 14.7009 88.6399 13.9254C87.8533 13.1499 87.4544 12.1971 87.4544 11.067C87.4544 9.93691 87.8422 8.98411 88.6288 8.19749C89.4154 7.41088 90.3793 7.02311 91.5205 7.02311C92.9718 7.02311 94.2459 7.73217 94.9107 8.79577L93.4039 9.65994C93.0605 9.12814 92.3514 8.75145 91.5094 8.75145C90.8557 8.75145 90.3018 8.97303 89.8697 9.40512C89.4376 9.8372 89.2271 10.4022 89.2271 11.0781C89.2271 11.7539 89.4487 12.2968 89.8918 12.7289C90.335 13.1499 90.9222 13.3604 91.6645 13.3604C92.6948 13.3604 93.3485 12.9615 93.6476 12.1638H91.5759V10.6127ZM96.464 14.9336V7.17822H98.2366V14.9336H96.464ZM102.561 4.96239H104.555L103.27 6.51347H101.674L102.561 4.96239ZM106.438 14.9336H104.499L104.112 13.7149H101.231L100.843 14.9336H98.9044L101.541 7.17822H103.801L106.438 14.9336ZM102.671 9.20569L101.763 12.053H103.58L102.671 9.20569ZM109.315 7.17822H115.076V8.8844H113.082V14.9336H111.31V8.8844H109.315V7.17822ZM121.835 14.9336H119.93L118.467 12.3854H117.625V14.9336H115.852V7.17822H118.955C119.697 7.17822 120.317 7.43304 120.838 7.95375C121.359 8.47447 121.614 9.0949 121.614 9.8372C121.614 10.7789 121.037 11.6431 120.184 12.0863L121.835 14.9336ZM118.955 8.84008H117.625V10.8343H118.955C119.442 10.8343 119.841 10.4022 119.841 9.8372C119.841 9.27217 119.442 8.84008 118.955 8.84008ZM124.253 17.3267C123.865 17.6923 123.267 17.6923 122.868 17.3267C122.491 16.9389 122.491 16.3517 122.868 15.975C123.267 15.5983 123.865 15.5983 124.253 15.975C124.641 16.3517 124.641 16.9389 124.253 17.3267ZM122.669 14.9336V7.17822H124.441V14.9336H122.669Z" fill="#C10000"/>
</g>
<defs>
<linearGradient id="paint0_linear_3232_94500" x1="73.7862" y1="20.5001" x2="61.1523" y2="-30.6159" gradientUnits="userSpaceOnUse">
<stop stop-color="#FFEC00"/>
<stop offset="1" stop-color="#F6A01A"/>
</linearGradient>
<clipPath id="clip0_3232_94500">
<rect width="144" height="20" fill="white" transform="translate(0 0.933594)"/>
</clipPath>
</defs>
</svg>
