<svg width="20" height="20" viewBox="0 0 20 20" fill="none" xmlns="http://www.w3.org/2000/svg">
<path d="M13.7083 1.66699H6.28333C5.66666 1.66699 5.15833 2.17533 5.15833 2.80033V17.2087C5.15833 17.8337 5.65833 18.342 6.28333 18.342H13.7167C14.3333 18.342 14.85 17.842 14.85 17.217V2.80033C14.85 2.18366 14.3417 1.66699 13.7167 1.66699H13.7083ZM8.80832 2.48366H11.1917C11.2667 2.48366 11.325 2.54199 11.325 2.61699C11.325 2.69199 11.2583 2.75033 11.1917 2.75033H8.80832C8.73332 2.75033 8.67499 2.68366 8.67499 2.61699C8.67499 2.54199 8.73332 2.48366 8.80832 2.48366ZM9.99999 17.7753C9.68332 17.7753 9.43332 17.5253 9.43332 17.2087C9.43332 16.892 9.68332 16.6503 9.99999 16.6503C10.3167 16.6503 10.5583 16.9003 10.5583 17.2087C10.5583 17.517 10.3083 17.7753 9.99999 17.7753ZM14.0583 16.2503H5.94166V3.45033H14.0583V16.2503Z" fill="#025CA6"/>
<path d="M10.7333 9.74961L12.25 8.23294C11.9083 7.69128 11.3667 7.27461 10.7333 7.09961V9.75794V9.74961Z" fill="#025CA6"/>
<path d="M12.325 8.35742L10.45 10.2408H12.5917C12.6333 10.0491 12.6583 9.85742 12.6583 9.64909C12.6583 9.18242 12.5333 8.74076 12.325 8.35742Z" fill="#025CA6"/>
<path d="M9.8917 10.3828L11.3917 11.9161C11.95 11.5745 12.3667 11.0328 12.55 10.3828H9.88336H9.8917Z" fill="#025CA6"/>
<path d="M7.40834 9.05762C7.36667 9.24928 7.34167 9.44095 7.34167 9.64928C7.34167 10.1243 7.46667 10.566 7.68334 10.9493L9.55834 9.06595H7.40834V9.05762Z" fill="#025CA6"/>
<path d="M10.1 8.91608L8.58332 7.39941C8.03332 7.74108 7.62498 8.28275 7.44165 8.91608H10.1Z" fill="#025CA6"/>
<path d="M9.40833 10.0996V12.2413C9.59999 12.2829 9.79166 12.3079 9.99999 12.3079C10.4583 12.3079 10.8917 12.1913 11.2667 11.9913L9.40833 10.0996Z" fill="#025CA6"/>
<path d="M9.26669 9.5498L7.75836 11.0748C8.10003 11.6165 8.64169 12.0248 9.26669 12.2081V9.55814V9.5498Z" fill="#025CA6"/>
<path d="M10.5917 9.19954V7.05788C10.4 7.01621 10.2083 6.99121 10 6.99121C9.53334 6.99121 9.10001 7.10788 8.71667 7.32454L10.5917 9.20788V9.19954Z" fill="#025CA6"/>
</svg>
