<svg width="88" height="18" viewBox="0 0 88 18" fill="none" xmlns="http://www.w3.org/2000/svg">
<rect width="88" height="18" fill="#1E1E1E"/>
<path d="M-2438 -17185C-2438 -17186.1 -2437.1 -17187 -2436 -17187H17752C17753.1 -17187 17754 -17186.1 17754 -17185V2650C17754 2651.11 17753.1 2652 17752 2652H-2436C-2437.1 2652 -2438 2651.11 -2438 2650V-17185Z" fill="black"/>
<path d="M-2436 -17187V-17186H17752V-17187V-17188H-2436V-17187ZM17754 -17185H17753V2650H17754H17755V-17185H17754ZM17752 2652V2651H-2436V2652V2653H17752V2652ZM-2438 2650H-2437V-17185H-2438H-2439V2650H-2438ZM-2436 2652V2651C-2436.55 2651 -2437 2650.55 -2437 2650H-2438H-2439C-2439 2651.66 -2437.66 2653 -2436 2653V2652ZM17754 2650H17753C17753 2650.55 17752.6 2651 17752 2651V2652V2653C17753.7 2653 17755 2651.66 17755 2650H17754ZM17752 -17187V-17186C17752.6 -17186 17753 -17185.6 17753 -17185H17754H17755C17755 -17186.7 17753.7 -17188 17752 -17188V-17187ZM-2436 -17187V-17188C-2437.66 -17188 -2439 -17186.7 -2439 -17185H-2438H-2437C-2437 -17185.6 -2436.55 -17186 -2436 -17186V-17187Z" fill="white" fill-opacity="0.1"/>
<path d="M-1336 -6375C-1336 -6376.1 -1335.1 -6377 -1334 -6377H16667C16668.1 -6377 16669 -6376.1 16669 -6375V1909C16669 1910.1 16668.1 1911 16667 1911H-1334C-1335.1 1911 -1336 1910.1 -1336 1909V-6375Z" fill="#444444"/>
<path d="M-1334 -6377V-6376H16667V-6377V-6378H-1334V-6377ZM16669 -6375H16668V1909H16669H16670V-6375H16669ZM16667 1911V1910H-1334V1911V1912H16667V1911ZM-1336 1909H-1335V-6375H-1336H-1337V1909H-1336ZM-1334 1911V1910C-1334.55 1910 -1335 1909.55 -1335 1909H-1336H-1337C-1337 1910.66 -1335.66 1912 -1334 1912V1911ZM16669 1909H16668C16668 1909.55 16667.6 1910 16667 1910V1911V1912C16668.7 1912 16670 1910.66 16670 1909H16669ZM16667 -6377V-6376C16667.6 -6376 16668 -6375.55 16668 -6375H16669H16670C16670 -6376.66 16668.7 -6378 16667 -6378V-6377ZM-1334 -6377V-6378C-1335.66 -6378 -1337 -6376.66 -1337 -6375H-1336H-1335C-1335 -6375.55 -1334.55 -6376 -1334 -6376V-6377Z" fill="white" fill-opacity="0.1"/>
<g filter="url(#filter0_d_989_52072)">
<rect x="-763" y="-5676" width="1920" height="5863" rx="8" fill="#F5F5F5"/>
<rect x="-762.5" y="-5675.5" width="1919" height="5862" rx="7.5" stroke="white" stroke-opacity="0.1"/>
<rect width="1920" height="580" transform="translate(-763 -443)" fill="white"/>
<rect x="-8.17784" y="-12.415" width="102.163" height="38.83" fill="white" stroke="#E2E2E2" stroke-width="1.16996"/>
<g clip-path="url(#clip0_989_52072)">
<g clip-path="url(#clip1_989_52072)">
<path d="M103.602 9.55382C103.357 9.57839 103.137 9.59559 102.934 9.60787C102.249 9.65783 101.726 9.69468 101.361 9.72007C101.116 9.73319 100.873 9.76939 100.634 9.82817C100.435 9.89042 100.331 9.95675 100.331 10.0313C100.331 10.1181 100.435 10.1951 100.634 10.2516C100.893 10.3021 101.156 10.3216 101.419 10.3097C101.992 10.3252 102.564 10.2568 103.117 10.1066C103.286 10.0658 103.449 10.0031 103.602 9.9199V9.55382ZM99.3019 9.14433C99.5129 8.91959 99.7885 8.76591 100.091 8.70454C100.723 8.54677 101.374 8.4784 102.025 8.50144C102.759 8.47145 103.493 8.53976 104.208 8.70454C104.611 8.82493 104.81 8.96989 104.81 9.12386V10.286C104.81 10.4227 104.974 10.5268 105.292 10.6013H103.843C103.679 10.5513 103.602 10.4727 103.602 10.3605C102.853 10.5629 102.079 10.6567 101.303 10.639C100.712 10.6596 100.12 10.5968 99.5468 10.4522C99.1816 10.3441 98.9989 10.2115 98.9989 10.0665C98.9989 9.89233 99.1816 9.75119 99.5468 9.64309C100.1 9.49663 100.668 9.41581 101.24 9.40231C101.726 9.37774 102.15 9.34825 102.511 9.31058C103.034 9.27291 103.399 9.23606 103.602 9.20248C103.602 9.10256 103.478 9.01575 103.237 8.94123C102.9 8.85901 102.554 8.82264 102.208 8.83312C101.801 8.818 101.393 8.85433 100.996 8.94123C100.86 8.9782 100.736 9.04796 100.634 9.14433H99.3019ZM95.2677 8.53829H96.4798V10.6013H95.2644L95.2677 8.53829ZM95.2677 7.46707H96.4798V7.94454H95.2644L95.2677 7.46707ZM91.0549 7.4507H92.267V10.6013H91.0549V7.4507ZM86.8421 9.55136C86.6013 9.57593 86.381 9.59313 86.1779 9.60541C85.4933 9.65537 84.9699 9.69222 84.6047 9.71761C84.3598 9.73144 84.1166 9.76763 83.8782 9.82572C83.6792 9.88796 83.5793 9.9543 83.5793 10.0288C83.5793 10.1156 83.6792 10.1926 83.8782 10.2491C84.1365 10.2996 84.3999 10.3191 84.6628 10.3073C85.2356 10.3227 85.8076 10.2543 86.3605 10.1042C86.529 10.0647 86.6911 10.0019 86.8421 9.91744V9.55136ZM82.5458 9.14188C82.7574 8.91798 83.0327 8.76447 83.3344 8.70209C83.9682 8.54602 84.6208 8.47985 85.2729 8.50554C86.0038 8.47542 86.7355 8.54372 87.4481 8.70864C87.8576 8.82902 88.0542 8.97398 88.0542 9.12795V10.2901C88.0542 10.4268 88.218 10.5309 88.5398 10.6054H87.087C86.9232 10.5554 86.8413 10.4768 86.8413 10.3646C86.0943 10.5671 85.322 10.6609 84.5482 10.6431C83.957 10.6637 83.3659 10.6008 82.7923 10.4563C82.427 10.3482 82.2485 10.2155 82.2485 10.0706C82.2485 9.89615 82.427 9.75529 82.7923 9.64718C83.3454 9.50072 83.9139 9.41991 84.4859 9.4064C84.9716 9.38183 85.395 9.35235 85.7561 9.31468C86.2795 9.27701 86.6447 9.24015 86.8437 9.20657C86.8437 9.1072 86.7234 9.02012 86.4826 8.94532C86.1472 8.86329 85.8023 8.82693 85.4572 8.83722C85.0502 8.82161 84.6429 8.85794 84.2451 8.94532C84.1083 8.98141 83.9827 9.05124 83.8799 9.14843L82.5458 9.14188ZM76.7638 7.8135H77.9718V8.53583H80.0315V8.83066H77.9726V10.0264C77.9726 10.1009 78.0725 10.1672 78.2756 10.2295C78.534 10.2897 78.7993 10.3147 79.0643 10.304C79.5711 10.3085 80.0771 10.2641 80.5753 10.1713V10.5243C80.095 10.602 79.609 10.6396 79.1225 10.6365C78.5325 10.6588 77.9422 10.6037 77.3666 10.4727C76.9637 10.3482 76.7646 10.2115 76.7646 10.0632V8.83312H75.3061V8.53829H76.763L76.7638 7.8135ZM71.0941 7.44824H73.8213V7.85117H73.1522V10.1926H73.8204V10.6021H71.0933V10.1926H71.7616V7.85609H71.0933L71.0941 7.44824Z" fill="#050606"/>
<path d="M104.977 13.251H0.214355V17.7062H104.977V13.251Z" fill="#1A1718"/>
<path d="M104.981 17.711H0.206543V13.2451H104.981V17.711ZM0.214741 17.6987H104.969V13.2533H0.214741V17.6987Z" fill="#1A1718"/>
<path d="M35.1337 13.2529H0.214355V17.7081H35.1337V13.2529Z" fill="#288C43"/>
<path d="M70.0525 13.2529H35.1323V17.7081H70.0525V13.2529Z" fill="#F1EEE9"/>
<path d="M104.976 13.2529H70.0542V17.7081H104.976V13.2529Z" fill="#D61629"/>
<path d="M56.7545 2.34764L54.3639 6.36061H59.1459L56.7545 2.34764ZM49.5819 10.4833L55.8331 0.430426H57.6758L63.927 10.4833H61.7158L59.7855 7.4613H53.7128L51.7866 10.4833H49.5819ZM35.4571 3.1617C35.4844 2.75722 35.6177 2.36705 35.8435 2.03038C36.0694 1.6937 36.3798 1.42238 36.7437 1.24367C37.964 0.618722 39.3314 0.337598 40.6994 0.430426C42.1977 0.337409 43.6927 0.659025 45.0202 1.35996C45.3852 1.53725 45.6966 1.80821 45.9226 2.14517C46.1487 2.48214 46.2813 2.87305 46.3068 3.278H44.1939C44.1861 3.03609 44.1137 2.80068 43.984 2.59629C43.8544 2.3919 43.6724 2.22601 43.4568 2.11588C42.6623 1.71155 41.7729 1.53067 40.8836 1.59255C39.9688 1.51745 39.05 1.67759 38.2146 2.05772C38.0358 2.14343 37.8824 2.27422 37.7696 2.43721C37.6567 2.60019 37.5882 2.78977 37.5709 2.98726C37.5606 3.13448 37.5894 3.2818 37.6542 3.41437C37.7191 3.54693 37.8177 3.66006 37.9402 3.74235C38.4614 4.01476 39.0191 4.2106 39.5962 4.32383C41.0075 4.7142 42.6016 5.15972 44.3782 5.66039C44.8669 5.7757 45.3328 5.97226 45.7565 6.24185C46.0442 6.38167 46.2898 6.59508 46.4685 6.86044C46.6471 7.1258 46.7524 7.43368 46.7737 7.75286C46.7531 8.16713 46.6228 8.56849 46.396 8.91577C46.1692 9.26304 45.8541 9.54373 45.483 9.72904C44.5657 10.31 43.0643 10.6004 40.9786 10.6004C39.3471 10.6938 37.7218 10.3317 36.2843 9.5546C35.9044 9.32805 35.593 9.00282 35.3832 8.61348C35.1734 8.22413 35.073 7.78522 35.0927 7.34337H37.2097C37.1853 7.63754 37.2402 7.93287 37.3687 8.19862C37.4971 8.46437 37.6945 8.69082 37.9402 8.85438C38.9062 9.347 39.9878 9.56807 41.0695 9.49399C42.0542 9.56065 43.0388 9.36272 43.9212 8.92072C44.4126 8.60951 44.6582 8.2983 44.6582 7.98709C44.6517 7.80544 44.5967 7.62885 44.4989 7.47563C44.4012 7.32241 44.2642 7.19813 44.1022 7.1157C43.6406 6.85713 43.1465 6.66157 42.6329 6.53423C42.0187 6.33931 41.2259 6.10673 40.2465 5.83729C39.1425 5.5299 38.2514 5.2782 37.5733 5.08219C37.1185 4.97989 36.6838 4.80306 36.2867 4.55887C36.0372 4.42177 35.8289 4.22033 35.6836 3.97548C35.5383 3.73064 35.4612 3.45134 35.4604 3.16662M24.8301 2.35337L22.4395 6.36634H27.2215L24.8301 2.35337ZM17.6576 10.489L23.9088 0.436162H25.7474L32.0027 10.489H29.7915L27.8611 7.46704H21.7917L19.8614 10.489H17.6576ZM1.6057 5.54982C1.5912 4.73566 1.79733 3.93275 2.2022 3.22624C2.60708 2.51974 3.1956 1.93597 3.90538 1.53686C5.27197 0.749681 6.83402 0.366835 8.40973 0.432888C9.91258 0.353507 11.4077 0.695588 12.7265 1.42056C13.2189 1.68352 13.6371 2.06625 13.9425 2.53344C14.248 3.00062 14.4308 3.53721 14.4742 4.09369H12.2704C12.2243 3.7136 12.0923 3.34899 11.8844 3.02747C11.6766 2.70594 11.3982 2.43593 11.0706 2.2379C10.2704 1.75099 9.34596 1.50715 8.40973 1.53604C7.37079 1.51621 6.34846 1.79875 5.46715 2.34928C4.95543 2.71053 4.53795 3.18938 4.24979 3.74554C3.96162 4.30171 3.81123 4.91894 3.81123 5.54532C3.81123 6.17171 3.96162 6.78893 4.24979 7.3451C4.53795 7.90126 4.95543 8.38011 5.46715 8.74136C6.35502 9.27069 7.37668 9.53285 8.40973 9.49645C9.39997 9.55269 10.3862 9.33115 11.2573 8.85683C11.6615 8.62153 11.9945 8.28126 12.221 7.87207C12.4475 7.46288 12.5591 7.00004 12.5439 6.53259H14.7551C14.7373 7.16031 14.559 7.77298 14.2371 8.31219C13.9152 8.8514 13.4606 9.29916 12.9165 9.61275C11.5355 10.3528 9.97612 10.6947 8.41218 10.6004C6.83647 10.6665 5.27442 10.2836 3.90783 9.49645C3.20391 9.10626 2.61857 8.53303 2.21375 7.83742C1.80893 7.14181 1.59969 6.3497 1.60817 5.54491" fill="#050606"/>
</g>
</g>
</g>
<defs>
<filter id="filter0_d_989_52072" x="-767" y="-5676" width="1928" height="5871" filterUnits="userSpaceOnUse" color-interpolation-filters="sRGB">
<feFlood flood-opacity="0" result="BackgroundImageFix"/>
<feColorMatrix in="SourceAlpha" type="matrix" values="0 0 0 0 0 0 0 0 0 0 0 0 0 0 0 0 0 0 127 0" result="hardAlpha"/>
<feOffset dy="4"/>
<feGaussianBlur stdDeviation="2"/>
<feComposite in2="hardAlpha" operator="out"/>
<feColorMatrix type="matrix" values="0 0 0 0 0 0 0 0 0 0 0 0 0 0 0 0 0 0 0.25 0"/>
<feBlend mode="normal" in2="BackgroundImageFix" result="effect1_dropShadow_989_52072"/>
<feBlend mode="normal" in="SourceGraphic" in2="effect1_dropShadow_989_52072" result="shape"/>
</filter>
<clipPath id="clip0_989_52072">
<rect width="89.2967" height="21.78" fill="white" transform="translate(-1.43018 -3.66699)"/>
</clipPath>
<clipPath id="clip1_989_52072">
<rect width="105.086" height="17.2836" fill="white" transform="translate(0.206543 0.428711)"/>
</clipPath>
</defs>
</svg>
