<svg width="20" height="20" viewBox="0 0 20 20" fill="none" xmlns="http://www.w3.org/2000/svg">
<path d="M6.73335 9.75C6.37501 9.75 6.04168 9.925 5.83335 10.225L5.01668 11.4083C4.51668 12.1333 5.03335 13.125 5.91668 13.125H14.05C14.9333 13.125 15.45 12.1333 14.95 11.4083L14.1333 10.225C13.925 9.93333 13.5917 9.75 13.2333 9.75H6.73335Z" fill="#025CA6"/>
<path d="M17.7917 9.65039L15.275 7.65039C15.275 7.65039 13.9 7.71706 14.2167 9.41706L15.425 11.1171C15.7334 11.5587 15.8334 12.1171 15.6667 12.6337C15.6584 12.6671 15.6417 12.7004 15.6334 12.7337C15.4334 13.2504 14.925 13.5754 14.3667 13.5754H5.63335C5.08335 13.5754 4.57502 13.2421 4.36669 12.7337C4.35002 12.7004 4.34169 12.6671 4.33335 12.6337C4.16669 12.1254 4.25835 11.5587 4.57502 11.1171L5.80835 9.38372C6.02502 7.75039 4.71669 7.65872 4.71669 7.65872L2.20002 9.65872C1.29169 11.1337 2.50835 12.2004 2.50835 12.2004C2.20002 13.8587 3.51669 14.7921 3.51669 14.7921V15.4921H16.45V14.7921C16.45 14.7921 17.775 13.8587 17.4584 12.2004C17.4584 12.2004 18.675 11.1337 17.7667 9.65872L17.7917 9.65039Z" fill="#025CA6"/>
<path d="M12.4333 1.66699H7.55832C6.11665 1.66699 4.94165 2.83366 4.94165 4.28366V7.31699C5.94998 7.56699 6.17498 8.40866 6.21665 8.95033C6.23332 9.20866 6.44998 9.40033 6.69998 9.40033C7.26665 9.40033 8.22498 9.40033 9.08332 9.40033C9.08332 9.40033 9.45832 9.40033 9.99165 9.40033C10.525 9.40033 10.9 9.40033 10.9 9.40033C11.7583 9.39199 12.7167 9.39199 13.2833 9.40033C13.5417 9.40033 13.75 9.20866 13.7667 8.95033C13.8 8.41699 14.025 7.57533 15.0416 7.31699V4.28366C15.0416 2.84199 13.875 1.66699 12.425 1.66699H12.4333ZM7.66665 7.72533C7.50832 7.72533 7.37498 7.59199 7.37498 7.43366C7.37498 7.27533 7.50832 7.14199 7.66665 7.14199C7.82498 7.14199 7.95832 7.27533 7.95832 7.43366C7.95832 7.59199 7.82498 7.72533 7.66665 7.72533ZM7.66665 5.79199C7.50832 5.79199 7.37498 5.65866 7.37498 5.50033C7.37498 5.34199 7.50832 5.20866 7.66665 5.20866C7.82498 5.20866 7.95832 5.34199 7.95832 5.50033C7.95832 5.65866 7.82498 5.79199 7.66665 5.79199ZM7.66665 3.85033C7.50832 3.85033 7.37498 3.71699 7.37498 3.55866C7.37498 3.40033 7.50832 3.26699 7.66665 3.26699C7.82498 3.26699 7.95832 3.40033 7.95832 3.55866C7.95832 3.71699 7.82498 3.85033 7.66665 3.85033ZM12.3333 7.72533C12.175 7.72533 12.0417 7.59199 12.0417 7.43366C12.0417 7.27533 12.175 7.14199 12.3333 7.14199C12.4917 7.14199 12.625 7.27533 12.625 7.43366C12.625 7.59199 12.4917 7.72533 12.3333 7.72533ZM12.3333 5.79199C12.175 5.79199 12.0417 5.65866 12.0417 5.50033C12.0417 5.34199 12.175 5.20866 12.3333 5.20866C12.4917 5.20866 12.625 5.34199 12.625 5.50033C12.625 5.65866 12.4917 5.79199 12.3333 5.79199ZM12.3333 3.85033C12.175 3.85033 12.0417 3.71699 12.0417 3.55866C12.0417 3.40033 12.175 3.26699 12.3333 3.26699C12.4917 3.26699 12.625 3.40033 12.625 3.55866C12.625 3.71699 12.4917 3.85033 12.3333 3.85033Z" fill="#025CA6"/>
<path d="M16.4917 15.8164H3.53333V16.6581H16.4917V15.8164Z" fill="#025CA6"/>
<path d="M4.53335 18.3337H5.42502V17.0254H4.18335L4.53335 18.3337Z" fill="#025CA6"/>
<path d="M14.575 18.3337H15.4667L15.8167 17.0254H14.575V18.3337Z" fill="#025CA6"/>
</svg>
