<svg width="24" height="25" viewBox="0 0 24 25" fill="none" xmlns="http://www.w3.org/2000/svg">
<path fill-rule="evenodd" clip-rule="evenodd" d="M11.0248 2.63657C11.6568 2.41932 12.3432 2.41932 12.9752 2.63657L18.9752 4.69907C20.1866 5.11549 21 6.25515 21 7.53613V12.2711C21 15.0779 19.8511 17.1006 18.1875 18.6755C16.6151 20.1642 14.5552 21.275 12.6319 22.3121L12.4748 22.3968C12.1785 22.5567 11.8215 22.5567 11.5252 22.3968L11.3681 22.3121C9.44484 21.275 7.38493 20.1642 5.8125 18.6755C4.14891 17.1006 3 15.0779 3 12.2711V7.53613C3 6.25515 3.81336 5.11549 5.02476 4.69907L11.0248 2.63657ZM15.2071 10.8155C15.5976 10.425 15.5976 9.79182 15.2071 9.40129C14.8166 9.01077 14.1834 9.01077 13.7929 9.40129L11 12.1942L10.2071 11.4013C9.81658 11.0108 9.18342 11.0108 8.79289 11.4013C8.40237 11.7918 8.40237 12.425 8.79289 12.8155L10.2929 14.3155C10.4804 14.503 10.7348 14.6084 11 14.6084C11.2652 14.6084 11.5196 14.503 11.7071 14.3155L15.2071 10.8155Z" fill="url(#paint0_linear_3258_95745)"/>
<defs>
<linearGradient id="paint0_linear_3258_95745" x1="12" y1="2.47363" x2="12" y2="22.5167" gradientUnits="userSpaceOnUse">
<stop stop-color="#0169FF"/>
<stop offset="1" stop-color="#004795"/>
</linearGradient>
</defs>
</svg>
