<svg width="16" height="17" viewBox="0 0 16 17" fill="none" xmlns="http://www.w3.org/2000/svg">
<path d="M7.69824 1.89038C7.81975 1.63708 8.18123 1.63708 8.30273 1.89038L9.97363 5.37378L10.0908 5.61792L10.3594 5.65308L14.209 6.15796C14.49 6.19506 14.5989 6.5399 14.3955 6.73218L11.582 9.3894L11.3838 9.57593L11.4336 9.84448L12.1396 13.6375C12.1906 13.9112 11.9005 14.1279 11.6504 13.9929L8.2373 12.1501L8 12.0212L7.7627 12.1501L4.34961 13.9929C4.09959 14.1277 3.80941 13.9111 3.86035 13.6375L4.56738 9.84448L4.61719 9.57593L4.41895 9.3894L1.60547 6.73218C1.4018 6.53985 1.51065 6.19485 1.79199 6.15796L5.64062 5.65308L5.90918 5.61792L6.02637 5.37378L7.69824 1.89038Z" fill="#FF9040" stroke="#FF9040"/>
</svg>
