<svg width="25" height="24" viewBox="0 0 25 24" fill="none" xmlns="http://www.w3.org/2000/svg">
<path d="M20.5 11.4087V18.25C20.5 19.3546 19.6046 20.25 18.5 20.25H6.00002C4.89545 20.25 4.00002 19.3546 4.00002 18.25V11.4087M9.75002 3.75H14.7501M9.75002 3.75L9.15899 8.77398C8.94131 10.6243 10.387 12.25 12.2501 12.25C14.1131 12.25 15.5588 10.6243 15.3411 8.77397L14.7501 3.75M9.75002 3.75H6.13535C5.2614 3.75 4.48866 4.31745 4.22705 5.15132L3.22236 8.35377C2.61638 10.2853 4.0591 12.25 6.08349 12.25C7.60405 12.25 8.88391 11.1119 9.06158 9.60174L9.75002 3.75ZM14.7501 3.75H18.3647C19.2386 3.75 20.0114 4.31745 20.273 5.15132L21.2777 8.35377C21.8837 10.2853 20.4409 12.25 18.4165 12.25C16.896 12.25 15.6161 11.1119 15.4385 9.60174L14.7501 3.75Z" stroke="white" stroke-width="1.5" stroke-linecap="round" stroke-linejoin="round"/>
</svg>
