<svg width="41" height="40" viewBox="0 0 41 40" fill="none" xmlns="http://www.w3.org/2000/svg">
<path d="M20.3373 40C31.383 40 40.3373 31.0457 40.3373 20C40.3373 8.9543 31.383 0 20.3373 0C9.29158 0 0.33728 8.9543 0.33728 20C0.33728 31.0457 9.29158 40 20.3373 40Z" fill="url(#paint0_linear_3258_95873)"/>
<path fill-rule="evenodd" clip-rule="evenodd" d="M24.526 16.8692C25.978 17.9099 27.7572 18.5141 29.6792 18.5141V14.8129C29.3183 14.8129 28.949 14.7794 28.5965 14.7038V17.6161C26.6746 17.6161 24.8953 17.0034 23.4433 15.9711V23.5162C23.4433 27.293 20.38 30.348 16.6032 30.348C15.1932 30.348 13.884 29.9199 12.7929 29.1898C14.035 30.4571 15.7639 31.246 17.6775 31.246C21.4542 31.246 24.5176 28.1826 24.5176 24.4143V16.8692H24.526ZM25.8688 13.1428C25.1303 12.3287 24.6351 11.288 24.5344 10.1298V9.65137H23.5105C23.7707 11.1201 24.6519 12.379 25.8688 13.1428ZM15.1932 26.3026C14.782 25.7571 14.5554 25.0941 14.5554 24.4059C14.5554 22.677 15.957 21.2838 17.6859 21.2838C18.0048 21.2838 18.3237 21.3341 18.6343 21.4264V17.6497C18.2734 17.5993 17.9125 17.5825 17.5516 17.5909V20.5368C17.2411 20.4361 16.9221 20.3941 16.6032 20.3941C14.8743 20.3941 13.4727 21.7957 13.4727 23.5162C13.4727 24.7332 14.1693 25.7907 15.1932 26.311V26.3026Z" fill="#FF1753"/>
<path fill-rule="evenodd" clip-rule="evenodd" d="M23.4444 15.9717C24.8964 17.0124 26.6757 17.6167 28.5976 17.6167V14.7044C27.5233 14.4778 26.5749 13.9155 25.8615 13.135C24.6362 12.3712 23.755 11.1123 23.5032 9.64355H20.8091V24.4149C20.8091 26.1354 19.4075 27.5286 17.6786 27.5286C16.6631 27.5286 15.7566 27.0418 15.1859 26.2948C14.162 25.7829 13.4654 24.7254 13.4654 23.5C13.4654 21.7711 14.867 20.3779 16.5959 20.3779C16.9232 20.3779 17.2422 20.4283 17.5443 20.5206V17.5747C13.8347 17.6503 10.8469 20.6801 10.8469 24.4065C10.8469 26.2697 11.5938 27.9566 12.794 29.182C13.8851 29.9121 15.1943 30.3402 16.6043 30.3402C20.3811 30.3402 23.4444 27.2768 23.4444 23.5084V15.9633V15.9717Z" fill="white"/>
<path fill-rule="evenodd" clip-rule="evenodd" d="M28.6043 14.7124V13.9235C27.6391 13.9235 26.6907 13.6549 25.8682 13.1429C26.5984 13.9402 27.5552 14.4858 28.6043 14.7124ZM23.5015 9.65154C23.4763 9.50886 23.4595 9.36618 23.4427 9.22351V8.74512H19.7247V23.5164C19.7247 25.2369 18.3231 26.6301 16.5942 26.6301C16.0906 26.6301 15.6122 26.5126 15.1842 26.2944C15.7549 27.0414 16.6613 27.5282 17.6769 27.5282C19.3974 27.5282 20.799 26.135 20.8074 24.4144V9.64314H23.5015V9.65154ZM17.551 17.5827V16.7434C17.2405 16.7015 16.9299 16.6763 16.611 16.6763C12.8342 16.6763 9.77087 19.7397 9.77087 23.508C9.77087 25.8748 10.971 27.9562 12.8007 29.1899C11.5921 27.9562 10.8535 26.2692 10.8535 24.4144C10.8535 20.688 13.833 17.6583 17.551 17.5827Z" fill="#00C9D0"/>
<defs>
<linearGradient id="paint0_linear_3258_95873" x1="6.19544" y1="5.85816" x2="34.4791" y2="34.1418" gradientUnits="userSpaceOnUse">
<stop stop-color="#23004A"/>
<stop offset="0.96" stop-color="#010003"/>
<stop offset="1"/>
</linearGradient>
</defs>
</svg>
