<svg width="41" height="40" viewBox="0 0 41 40" fill="none" xmlns="http://www.w3.org/2000/svg">
<path d="M20.3373 40C31.383 40 40.3373 31.0457 40.3373 20C40.3373 8.9543 31.383 0 20.3373 0C9.29159 0 0.33728 8.9543 0.33728 20C0.33728 31.0457 9.29159 40 20.3373 40Z" fill="url(#paint0_linear_3258_95870)"/>
<path d="M30.0489 17.4657C30.0489 15.1073 28.1437 13.2021 25.7854 13.2021H14.8831C12.5248 13.2021 10.6196 15.1073 10.6196 17.4657V22.5349C10.6196 24.8933 12.5248 26.7985 14.8831 26.7985H25.7854C28.1437 26.7985 30.0489 24.8933 30.0489 22.5349V17.4657ZM23.6368 20.378L18.7522 22.7951C18.5592 22.8958 17.9129 22.7615 17.9129 22.5433V17.5748C17.9129 17.3566 18.5676 17.2139 18.7606 17.323L23.4438 19.866C23.6368 19.9751 23.8466 20.2605 23.6452 20.3696L23.6368 20.378Z" fill="white"/>
<defs>
<linearGradient id="paint0_linear_3258_95870" x1="6.19544" y1="5.85816" x2="34.4791" y2="34.1418" gradientUnits="userSpaceOnUse">
<stop stop-color="#FF0000"/>
<stop offset="1" stop-color="#9B0000"/>
</linearGradient>
</defs>
</svg>
